<svg width="99" height="100" viewBox="0 0 99 100" fill="none" xmlns="http://www.w3.org/2000/svg">
<g id="Group 1">
<path id="Vector" d="M15.2493 14.5458C14.8853 14.9104 14.5213 15.2749 14.1629 15.6338C5.22618 24.5864 0.0888526 37.1157 0.000978319 49.754C-0.0827115 62.8755 5.20647 75.7345 14.5309 84.9482C23.5513 93.8658 35.9207 99.0348 48.6067 99.1242C61.7739 99.2122 74.4654 93.8755 83.7605 84.5794C84.119 84.2149 84.4791 83.8546 84.8431 83.4845C93.784 74.532 98.9153 62.0026 98.999 49.3699C99.0827 36.2497 93.7937 23.3894 84.4734 14.1757C75.4489 5.25254 63.0878 0.0890941 50.3976 0.00110519C37.2249 -0.0882804 24.5403 5.24834 15.2493 14.5458Z" fill="white"/>
<path id="Vector_2" d="M50.6518 10.3574C60.8619 10.3574 63.6376 23.9356 63.9514 32.2038H60.8425C60.6109 25.4147 58.884 12.6926 50.6518 12.6926C42.4237 12.6926 40.6926 25.4147 40.4611 32.2038H37.3562C37.6756 23.9356 40.4458 10.3574 50.6518 10.3574ZM50.6518 75.1577H36.5193C36.2236 67.1368 31.028 66.4371 26.3441 65.796C24.8238 65.5949 23.3717 65.3979 22.3381 64.8756C22.2935 57.627 23.3521 48.9259 25.5462 41.5208C26.6788 37.7708 29.2315 34.8295 34.3393 34.8002H37.5668V38.5348C37.0702 38.5697 36.677 38.9887 36.677 39.5013C36.677 40.0125 37.0702 40.4272 37.5668 40.4663V53.9119C37.5668 54.6312 38.1485 55.208 38.8668 55.208C39.5852 55.208 40.1611 54.6312 40.1611 53.9119V40.4663C40.6577 40.4272 41.0511 40.0125 41.0511 39.5013C41.0511 38.9887 40.6577 38.5697 40.1611 38.5348V34.8002H50.6518H61.1479V38.5348C60.6499 38.5697 60.2565 38.9887 60.2565 39.5013C60.2565 40.0125 60.6499 40.4272 61.1479 40.4663V53.9119C61.1479 54.6312 61.7225 55.208 62.4408 55.208C63.1549 55.208 63.7354 54.6312 63.7354 53.9119V40.4663C64.2333 40.4272 64.6265 40.0125 64.6265 39.5013C64.6265 38.9887 64.2333 38.5697 63.7354 38.5348V34.8002H66.9685C72.0764 34.8295 74.6303 37.7708 75.7573 41.5208C77.9556 48.9259 79.0086 57.627 78.9695 64.8756C77.9318 65.3979 76.4799 65.5949 74.9651 65.796C70.2757 66.4371 65.0784 67.1368 64.7883 75.1577H50.6518ZM33.9304 75.1577C33.6361 69.398 29.6206 68.8519 25.9941 68.363C24.7345 68.1913 23.5098 68.0278 22.4163 67.7178C22.5055 69.6298 22.6867 71.398 22.9587 72.9608C23.1791 74.2024 23.9268 75.1382 25.4081 75.1577H33.9304ZM78.8913 67.7178C77.7936 68.0278 76.5732 68.1913 75.3095 68.363C71.6829 68.8519 67.6715 69.398 67.3772 75.1577H75.8941C77.3852 75.1382 78.1284 74.2024 78.3544 72.9608C78.6208 71.398 78.7979 69.6298 78.8913 67.7178Z" fill="#4B5256"/>
</g>
</svg>
