<svg width="60" height="60" viewBox="0 0 60 60" fill="none" xmlns="http://www.w3.org/2000/svg">
<path d="M52.5003 34.5C52.0315 34.125 51.2815 34.2188 50.9065 34.6875C50.5315 35.1563 50.6253 35.9063 51.094 36.2813C51.5628 36.6563 51.5628 36.8438 51.5628 37.4063C51.5628 37.9688 51.2815 38.3438 50.719 38.7188C50.0628 39.1875 49.0315 39.0938 47.8128 38.3438C47.0628 37.875 46.3128 37.5 45.5628 37.0313L45.3753 36.9375C44.719 36.5625 44.1565 36.2813 43.5003 35.9063C42.9378 35.625 42.2815 35.8125 41.9065 36.375C41.8128 36.4688 41.8128 36.6563 41.719 36.8438C41.6253 37.3125 41.9065 37.7813 42.2815 37.9688C42.9378 38.3438 43.594 38.7188 44.1565 39.0938L45.0003 39.5625C45.469 39.8438 46.219 40.4063 45.6565 41.25C45.469 41.5313 45.2815 41.625 45.094 41.7188C44.719 41.8125 44.344 41.7188 43.8753 41.4375L42.7503 40.7813C42.2815 40.5 41.9065 40.2188 41.4378 39.9375C41.1565 39.75 40.969 39.6563 40.6878 39.4688H40.594C40.4065 39.375 40.219 39.1875 40.0315 39.0938C39.9378 39 39.844 39 39.844 39L39.7503 38.9063C39.1878 38.625 38.5315 38.8125 38.1565 39.375C37.8753 39.9375 38.0628 40.5938 38.6253 40.9688C39.1878 41.25 39.7503 41.625 40.3128 41.9063L40.4065 42C40.5003 42.0938 40.594 42.0938 40.6878 42.1875C41.2503 42.5625 41.2503 42.9375 41.2503 43.3125C41.1565 43.6875 40.969 44.0625 40.6878 44.1563C40.4065 44.3438 39.9378 44.25 39.5628 44.0625C39.0003 43.7813 38.4378 43.4063 37.969 43.125C37.4065 42.75 36.6565 42.375 36.0003 42C35.4378 41.7188 34.7815 41.9063 34.4065 42.4688C34.1253 43.0313 34.3128 43.6875 34.8753 44.0625L34.969 44.1563C34.969 44.25 35.0628 44.25 35.1565 44.25C35.344 44.4375 35.6253 44.5313 35.8128 44.7188C35.9065 44.8125 36.0003 44.8125 36.094 44.9063C36.7503 45.2813 36.9378 45.9375 36.5628 46.5C36.1878 47.0625 35.6253 47.1563 34.969 46.7813C34.5003 46.5 33.9378 46.2188 33.469 45.8438C33.3753 45.75 32.9065 45.4688 32.5315 45.1875C32.0628 44.9063 31.6878 44.5313 31.594 44.5313C31.0315 44.25 30.3753 44.4375 30.0003 44.9063C29.719 45.4688 29.8128 46.125 30.3753 46.5C30.469 46.5938 30.9378 46.875 31.3128 47.1563C31.7815 47.5313 32.1565 47.7188 32.2503 47.8125C32.8128 48.0938 33.2815 48.4688 33.7503 48.75C34.3128 49.125 34.969 49.3125 35.6253 49.3125C36.844 49.3125 37.8753 48.75 38.4378 47.7188C38.6253 47.3438 38.8128 46.9688 38.9065 46.5C39.844 46.875 40.7815 46.7813 41.6253 46.4063C42.5628 45.9375 43.219 45.0938 43.4065 43.9688C44.1565 44.25 44.9065 44.3438 45.6565 44.1563C46.5003 43.9688 47.1565 43.4063 47.6253 42.6563C47.9065 42.1875 48.094 41.7188 48.094 41.25C49.5003 41.7188 50.8128 41.5313 51.844 40.7813C52.969 40.0313 53.6253 38.9063 53.6253 37.6875C53.8128 36.1875 53.4378 35.3438 52.5003 34.5Z" fill="#4B5256"/>
<path d="M58.2188 26.625C55.6875 21.5625 53.25 16.5938 50.7188 11.5313C50.3438 10.7813 50.1563 10.6875 49.4063 11.1563C48.1875 11.9063 46.9688 12.6563 45.6563 13.4063C44.9063 13.875 44.8125 14.0625 45.1875 14.9063L45.4688 15.4688C45.2813 15.5625 45 15.75 44.8125 15.8438C40.9688 18.1875 38.0625 13.9688 34.5 13.2188C32.3438 12.75 29.1563 12.5625 27.2813 14.0625C24.4688 16.3125 21.6563 18.6563 18.8438 21.0938C16.875 22.7813 19.9688 24.1875 21.5625 24.375C24.9375 24.6563 27.2813 21.375 30.4688 22.5C33 23.4375 34.9688 25.4063 37.2188 26.7188C40.5 28.6875 43.6875 30.5625 46.9688 32.5313C47.8125 33 48.6563 33.5625 49.5 34.0313C49.6875 34.3125 52.0313 30.8438 52.7813 30C52.875 30.2813 53.1563 30.4688 53.3438 30.6563C53.625 30.5625 53.8125 30.4688 53.9063 30.375C55.2188 29.625 56.5313 28.7813 57.8438 28.0313C58.5 27.6563 58.5938 27.2813 58.2188 26.625ZM54.0938 27.5625L52.9688 26.3438L51.0938 28.5C50.8125 28.875 50.3438 29.5313 49.7813 30.2813C49.5938 30.5625 49.3125 30.8438 49.125 31.2188C49.0313 31.2188 49.0313 31.125 48.9375 31.125C48.6563 30.9375 48.4688 30.8438 48.1875 30.6563L42.1875 27L38.4375 24.75C37.6875 24.2813 37.0313 23.8125 36.2813 23.25C34.7813 22.125 33.2813 21 31.3125 20.3438C30.6563 20.0625 29.9063 19.9688 29.1563 19.9688C27.4688 19.9688 26.0625 20.625 24.75 21.1875C23.625 21.6563 22.6875 22.125 21.75 22.0313C21.6563 22.0313 21.4688 22.0313 21.2813 21.9375C23.7188 19.7813 26.25 17.7188 28.7813 15.6563C29.625 15 31.7813 14.8125 34.125 15.2813C35.0625 15.4688 36 16.0313 37.0313 16.6875C38.625 17.625 40.4063 18.6563 42.5625 18.6563C43.7813 18.6563 44.9063 18.2813 46.0313 17.625C46.2188 17.5313 46.4063 17.4375 46.5938 17.25L48.4688 16.2188L47.8125 14.7188C48.375 14.4375 48.8438 14.0625 49.4063 13.7813L50.8125 16.5C52.5 19.875 54.0938 23.1563 55.7813 26.5313C55.125 26.9063 54.6563 27.2813 54.0938 27.5625Z" fill="#FFCF26"/>
<path d="M9.00039 29.8125C8.53164 29.5312 7.59414 28.875 7.40664 28.7812L7.03164 28.5C6.09414 27.9375 5.06289 27.2812 4.03164 26.8125C4.03164 26.7187 4.12539 26.7187 4.12539 26.625C4.21914 26.4375 4.31289 26.3437 4.40664 26.1562L10.4066 14.0625C10.5004 13.9687 10.5004 13.7812 10.5941 13.5937L10.8754 13.0312C11.6254 13.4062 12.2816 13.9687 12.9379 14.4375C14.3441 15.4687 15.7504 16.5937 17.6254 16.875C18.7504 17.0625 19.8754 16.875 20.7191 16.3125C21.3754 15.9375 21.9379 15.4687 22.5941 15.0937L23.4379 14.5312C23.5316 14.4375 23.6254 14.4375 23.7191 14.3437C24.2816 14.0625 24.5629 13.4062 24.2816 12.8437C24.0004 12.2812 23.3441 12 22.7816 12.2812L22.2191 12.5625L21.3754 13.125C20.8129 13.5 20.2504 13.9687 19.5941 14.3437C19.1254 14.625 18.6566 14.7187 18.0941 14.625C16.6879 14.4375 15.5629 13.5 14.4379 12.5625C13.5941 11.9062 12.7504 11.25 11.8129 10.7812C11.1566 10.4062 10.5004 10.5 10.2191 10.5937C9.28164 10.9687 8.90664 11.8125 8.62539 12.4687C8.43789 12.9375 8.34414 13.0312 8.34414 13.125L2.34414 25.2187C2.25039 25.3125 2.25039 25.4062 2.15664 25.5937C1.96914 25.875 1.87539 26.1562 1.68789 26.4375C1.31289 27.5625 1.59414 28.3125 2.62539 28.7812C3.75039 29.25 4.78164 29.9062 5.81289 30.5625L6.18789 30.8437C6.37539 30.9375 7.31289 31.5 7.59414 31.7812C8.06289 32.0625 8.43789 32.625 8.71914 33.2812C8.90664 33.75 9.37539 34.0312 9.75039 34.0312C9.93789 34.0312 10.0316 34.0312 10.2191 33.9375C10.7816 33.6562 11.0629 33 10.8754 32.4375C10.5004 31.2187 9.84414 30.375 9.00039 29.8125Z" fill="#4B5256"/>
<path d="M28.125 38.1563C27.9375 38.0625 27.6563 37.9688 27.4688 37.875C27.375 37.875 27.1875 37.7812 27.1875 37.7812C27.1875 37.5937 27.0938 37.3125 27.0938 37.125C27 36.2812 27 35.1563 25.5 34.4063C25.2188 34.2188 24.8438 34.125 24.4688 34.0312V33.9375C24.4688 33.75 24.4688 33.5625 24.375 33.4688C24.0938 32.625 23.5313 31.875 22.7813 31.4063C22.3125 31.125 21.6563 30.9375 21.0938 30.9375C19.9688 30.9375 18.9375 31.5 18.375 32.4375L18.1875 32.8125C18 32.625 17.8125 32.4375 17.5313 32.3438C17.1563 32.0625 16.5938 31.875 15.9375 31.875C14.7188 31.875 13.5938 32.4375 13.125 33.2813L12.9375 33.6563C12.2813 34.6875 12.2813 34.6875 11.9063 35.5313L11.5313 36.375C11.0625 37.4062 11.0625 38.5312 11.7188 39.4687C12.375 40.5 13.4063 41.0625 14.625 41.0625H14.7188C14.8125 41.4375 14.9063 41.9063 15.2813 42.375C15.9375 43.2188 16.875 43.5938 17.9063 43.5938H18C18.0938 43.5938 18.2813 43.5938 18.375 43.5C18.4688 43.6875 18.4688 43.875 18.6563 44.0625C19.0313 44.625 19.6875 45.0938 20.4375 45.2812C20.9063 45.4688 21.375 45.4688 21.8438 45.375C22.3125 46.0313 23.0625 46.5 23.1563 46.5938C23.7188 46.9688 24.375 47.1562 25.0313 47.1562C26.0625 47.1562 26.9063 46.6875 27.5625 45.75C28.3125 44.7188 28.875 43.5938 29.4375 42.4688C30.2813 40.9688 29.7188 39.0938 28.125 38.1563ZM27.375 41.5312C26.9063 42.5625 26.3438 43.5938 25.6875 44.4375C25.4063 44.9063 25.0313 44.9063 24.9375 44.9063C24.75 44.9063 24.4688 44.8125 24.2813 44.7188C24.0938 44.625 23.7188 44.25 23.5313 44.0625C23.5313 43.7813 23.4375 43.5 23.25 43.3125L22.875 42.8438H21.9375L21.6563 43.0313C21.5625 43.125 21.2813 43.125 21 43.0313L20.4375 42.75C20.4375 42.6562 20.4375 42.5625 20.3438 42.5625C20.1563 42.0938 20.0625 41.5313 19.5 41.25C19.0313 40.9688 18.4688 41.1563 18 41.25H17.8125C17.4375 41.25 17.1563 41.1562 16.9688 40.875C16.875 40.7812 16.875 40.5 16.875 40.4062L16.7813 40.125C16.6875 39.6562 16.6875 39.1875 16.2188 38.9063C16.0313 38.8125 15.75 38.625 15.375 38.625C15.0938 38.625 14.8125 38.7188 14.625 38.8125H14.5313C14.1563 38.8125 13.875 38.625 13.6875 38.3438C13.5938 38.1563 13.5 37.875 13.6875 37.5L14.0625 36.6562C14.4375 36 14.4375 36 15 34.9687L15.1875 34.5938C15.2813 34.5 15.6563 34.3125 16.0313 34.3125C16.2188 34.3125 16.4063 34.4063 16.5 34.4063C16.6875 34.5 16.875 34.6875 16.9688 34.875C17.25 35.4375 17.8125 35.7187 18.375 35.7187C18.9375 35.7187 19.5 35.4375 19.7813 34.875L20.4375 33.6563C20.625 33.375 20.9063 33.2813 21.1875 33.2813C21.375 33.2813 21.5625 33.375 21.75 33.4688C22.0313 33.5625 22.2188 33.8438 22.2188 34.125V34.3125C22.4063 35.7187 22.9688 36.375 23.9063 36.375C24.0938 36.375 24.2813 36.375 24.375 36.4688C24.6563 36.6563 24.75 36.6562 24.75 37.3125C24.75 37.5937 24.75 37.875 24.8438 38.1563C25.0313 39.4688 26.0625 39.8438 26.5313 40.0313C26.625 40.0313 26.7188 40.125 26.9063 40.2188C27.4688 40.4063 27.6563 40.9688 27.375 41.5312Z" fill="#FFCF26"/>
</svg>
