<svg width="60" height="60" viewBox="0 0 60 60" fill="none" xmlns="http://www.w3.org/2000/svg">
<g clip-path="url(#clip0_612_202)">
<path d="M51.5625 4.78125H31.125V3C31.125 2.34375 30.6562 1.875 30 1.875C29.3438 1.875 28.875 2.4375 28.875 3V4.78125H8.4375C7.3125 4.78125 6.375 5.71875 6.375 6.84375V32.3438C6.375 37.4062 10.5 41.5312 15.5625 41.5312H28.7812V43.125H25.5937C24.9375 43.125 24.4687 43.6875 24.4687 44.25C24.4687 44.9062 25.0312 45.375 25.5937 45.375H27.1875L16.4062 56.1562C15.9375 56.625 15.9375 57.375 16.4062 57.75C16.875 58.2188 17.625 58.2188 18 57.75L30 45.9375L41.9062 57.8438C42.375 58.3125 43.0312 58.3125 43.5938 57.8438C44.0625 57.375 44.0625 56.625 43.5938 56.25L32.8125 45.375H34.3125C34.9687 45.375 35.4375 44.8125 35.4375 44.25C35.4375 43.5938 34.875 43.125 34.3125 43.125H31.125V41.5312H44.3437C49.4062 41.5312 53.5312 37.4062 53.5312 32.3438V6.84375C53.625 5.71875 52.6875 4.78125 51.5625 4.78125ZM51.2812 32.3438C51.2812 36.0938 48.1875 39.1875 44.4375 39.1875H15.6562C11.9062 39.1875 8.8125 36.0938 8.8125 32.3438V7.125H51.375V32.3438H51.2812Z" fill="#4B5256"/>
<path d="M14.0625 32.4375C14.0625 33.8437 14.9062 34.6875 16.3125 34.6875H20.7188C22.0313 34.6875 22.9688 33.8438 22.9688 32.5312V20.9062C22.9688 19.5937 22.125 18.75 20.8125 18.75H16.3125C15 18.75 14.1563 19.5937 14.1563 20.9062V24.6562L14.0625 32.4375ZM16.4062 21H20.625V32.3438H16.4062V21ZM37.0312 32.4375C37.0312 33.8437 37.875 34.6875 39.2813 34.6875H43.6875C45 34.6875 45.9375 33.8438 45.9375 32.5312V13.9687C45.9375 12.6562 45.0938 11.8125 43.7812 11.8125H39.2813C37.9688 11.8125 37.125 12.6562 37.125 13.9687V23.8125L37.0312 32.4375ZM39.375 14.0625H43.5938V32.3438H39.375V14.0625ZM27.8438 34.6875H32.25C33.6563 34.6875 34.5 33.8437 34.5 32.4375V26.8125C34.5 25.5 33.6562 24.6562 32.3438 24.5625H27.8438C26.5313 24.5625 25.6875 25.4062 25.6875 26.8125V32.3438C25.5938 33.8438 26.4375 34.6875 27.8438 34.6875ZM27.9375 27H32.1562V32.3438H27.9375V27Z" fill="#FFCF26"/>
</g>
<defs>
<clipPath id="clip0_612_202">
<rect width="60" height="60" fill="white"/>
</clipPath>
</defs>
</svg>
