<svg width="119" height="31" viewBox="0 0 119 31" fill="none" xmlns="http://www.w3.org/2000/svg">
<path d="M36.6266 7.69097C36.6266 10.707 35.2252 13.0443 32.5478 14.4453C36.0745 15.5935 37.9015 18.1855 37.9015 22.052C37.9015 27.8736 34.0774 30.8481 26.3868 30.8481H0V0H26.3853C33.8438 0 36.6266 1.78432 36.6266 7.69097ZM11.9399 11.6001H19.9706C22.8174 11.6001 24.1346 11.3869 24.1346 9.38947C24.1346 7.30808 22.7747 7.22266 19.9706 7.22266H11.9399V11.6001ZM20.3958 23.156C23.5412 23.156 25.0692 22.944 25.0692 20.6494C25.0692 18.3549 23.6254 18.059 20.3958 18.059H11.9399V23.156H20.3958Z" fill="white"/>
<path d="M32.5977 14.0217C39.3525 12.4071 43.0923 12.4071 43.0923 10.0286C43.0923 8.45521 41.3938 7.60596 37.9952 7.60596C33.5324 7.60596 31.3629 8.62453 31.3629 11.5151V11.599H18.4883C18.8285 3.69644 25.0352 0.00195312 37.059 0.00195312C49.423 0.00195312 55.6256 3.35778 55.6256 9.85781C55.6256 15.0845 52.4829 17.5484 45.4711 19.0779C38.2058 20.6926 32.8963 20.9046 30.4309 23.1992H54.9899V30.8485H17.4297C17.8965 20.9484 22.3162 16.4444 32.5977 14.0217Z" fill="#FFCF26"/>
<path d="M113.081 2.31083H118.696V0.385482H105.378V2.31083H110.992V14.7148C110.844 14.7065 110.697 14.6922 110.546 14.6922H104.776C104.537 14.0946 104.453 13.0412 104.358 11.5347C104.197 8.91853 103.649 8.3119 102.046 8.00802C103.709 7.48002 104.582 6.30383 104.582 4.39857C104.582 1.80279 102.777 0.385482 99.3517 0.385482H91.6063V14.6922H85.5716C88.1863 13.496 89.6758 11.0189 89.6758 7.7439C89.6758 3.06144 86.6355 0 81.6288 0C76.6009 0 73.561 3.06144 73.561 7.7439C73.561 11.0189 75.0517 13.496 77.6569 14.6922H69.941C71.497 13.9132 72.3183 12.5975 72.3183 10.8865C72.3183 8.41319 70.8382 7.48009 67.7371 6.8935L64.5143 6.2642C62.7289 5.91988 61.8981 5.4535 61.8981 4.25728C61.8981 2.77722 63.1968 1.92682 65.7502 1.92682C68.3048 1.92682 69.5611 2.77716 69.7036 4.66277H71.7718C71.7718 1.68261 69.6836 0 65.9131 0C61.8384 0 59.709 1.68266 59.709 4.44021C59.709 6.66937 61.0878 7.82548 63.9663 8.33194L67.5943 8.98014C69.3381 9.28402 70.1303 9.85322 70.1303 11.068C70.1303 12.6093 68.7104 13.5628 66.0541 13.5628C63.0142 13.5628 61.513 12.4479 61.4317 10.1359H59.2237C59.2237 12.7147 60.4623 14.3788 62.8449 15.0905C59.6089 16.1439 57.2595 19.1852 57.2595 22.7705C57.2595 27.2254 60.8822 30.8481 65.3371 30.8481H110.546C115 30.8481 118.624 27.2254 118.624 22.7705C118.624 19.1988 116.293 16.1665 113.074 15.1026H113.081V2.31083ZM75.7289 7.7439C75.7289 4.13596 77.8784 1.96683 81.6076 1.96683C85.3596 1.96683 87.5075 4.13596 87.5075 7.7439C87.5075 11.3333 85.3796 13.5213 81.6288 13.5213C77.8784 13.5213 75.7289 11.3522 75.7289 7.7439ZM93.6957 2.10938H98.3369C101.176 2.10938 102.494 2.57459 102.494 4.56149C102.494 6.46675 101.216 7.05487 98.5195 7.05487H93.6957V2.10938ZM93.6957 8.77722H99.1888C101.581 8.77722 102.046 9.44653 102.229 12.3254C102.306 13.4842 102.37 14.216 102.473 14.6922H93.6957V8.77722ZM116.773 22.7705C116.773 26.2042 113.98 28.9961 110.546 28.9961H65.3371C61.9038 28.9961 59.1115 26.2042 59.1115 22.7705C59.1115 19.336 61.9038 16.5441 65.3371 16.5441H110.546C113.98 16.5441 116.773 19.336 116.773 22.7705Z" fill="white"/>
<path d="M67.7485 19.1089C65.731 19.1089 64.0884 20.7514 64.0884 22.7701C64.0884 24.7887 65.731 26.4302 67.7485 26.4302C69.7656 26.4302 71.4082 24.7887 71.4082 22.7701C71.4082 20.7514 69.7656 19.1089 67.7485 19.1089ZM67.7485 24.5798C66.7511 24.5798 65.9388 23.7675 65.9388 22.7701C65.9388 21.7715 66.7511 20.9597 67.7485 20.9597C68.7455 20.9597 69.5577 21.7715 69.5577 22.7701C69.5577 23.7675 68.7455 24.5798 67.7485 24.5798Z" fill="white"/>
<path d="M87.9425 19.1089C85.925 19.1089 84.2812 20.7514 84.2812 22.7701C84.2812 24.7887 85.925 26.4302 87.9425 26.4302C89.9596 26.4302 91.6026 24.7887 91.6026 22.7701C91.6026 20.7514 89.9596 19.1089 87.9425 19.1089ZM87.9425 24.5798C86.945 24.5798 86.1332 23.7675 86.1332 22.7701C86.1332 21.7715 86.945 20.9597 87.9425 20.9597C88.9399 20.9597 89.7517 21.7715 89.7517 22.7701C89.7517 23.7675 88.9399 24.5798 87.9425 24.5798Z" fill="white"/>
<path d="M104.476 22.7701C104.476 24.7876 106.118 26.4302 108.136 26.4302C110.155 26.4302 111.797 24.7876 111.797 22.7701C111.797 20.7529 110.155 19.1089 108.136 19.1089C106.118 19.1089 104.476 20.7529 104.476 22.7701ZM109.946 22.7701C109.946 23.7675 109.134 24.5794 108.136 24.5794C107.138 24.5794 106.327 23.7675 106.327 22.7701C106.327 21.7727 107.138 20.9609 108.136 20.9609C109.134 20.9609 109.946 21.7727 109.946 22.7701Z" fill="white"/>
</svg>
