<svg width="119" height="32" viewBox="0 0 119 32" fill="none" xmlns="http://www.w3.org/2000/svg">
<path d="M36.6266 8.26665C36.6266 11.2827 35.2252 13.6199 32.5478 15.021C36.0745 16.1692 37.9015 18.7612 37.9015 22.6277C37.9015 28.4493 34.0774 31.4238 26.3868 31.4238H0V0.575684H26.3853C33.8438 0.575684 36.6266 2.36001 36.6266 8.26665ZM11.9399 12.1758H19.9706C22.8174 12.1758 24.1346 11.9626 24.1346 9.96515C24.1346 7.88377 22.7747 7.79835 19.9706 7.79835H11.9399V12.1758ZM20.3958 23.7317C23.5412 23.7317 25.0692 23.5197 25.0692 21.2251C25.0692 18.9306 23.6254 18.6347 20.3958 18.6347H11.9399V23.7317H20.3958Z" fill="#4B5256"/>
<path d="M32.5977 14.5974C39.3525 12.9828 43.0923 12.9828 43.0923 10.6043C43.0923 9.03089 41.3938 8.18165 37.9952 8.18165C33.5324 8.18165 31.3629 9.20022 31.3629 12.0908V12.1747H18.4883C18.8285 4.27212 25.0352 0.577637 37.059 0.577637C49.423 0.577637 55.6256 3.93346 55.6256 10.4335C55.6256 15.6602 52.4829 18.124 45.4711 19.6536C38.2058 21.2682 32.8963 21.4803 30.4309 23.7749H54.9899V31.4242H17.4297C17.8965 21.5241 22.3162 17.0201 32.5977 14.5974Z" fill="#FFCF26"/>
<path d="M113.081 2.88651H118.696V0.961166H105.378V2.88651H110.992V15.2905C110.844 15.2822 110.697 15.2679 110.547 15.2679H104.776C104.537 14.6703 104.453 13.6169 104.358 12.1104C104.197 9.49421 103.649 8.88758 102.046 8.5837C103.709 8.05571 104.582 6.87952 104.582 4.97426C104.582 2.37848 102.777 0.961166 99.352 0.961166H91.6066V15.2679H85.5718C88.1865 14.0716 89.676 11.5945 89.676 8.31958C89.676 3.63712 86.6358 0.575684 81.629 0.575684C76.6011 0.575684 73.5612 3.63712 73.5612 8.31958C73.5612 11.5945 75.0519 14.0716 77.6571 15.2679H69.9412C71.4972 14.4889 72.3185 13.1732 72.3185 11.4622C72.3185 8.98888 70.8385 8.05577 67.7374 7.46919L64.5146 6.83988C62.7291 6.49557 61.8984 6.02919 61.8984 4.83297C61.8984 3.3529 63.197 2.5025 65.7505 2.5025C68.3051 2.5025 69.5614 3.35285 69.7039 5.23845H71.772C71.772 2.2583 69.6838 0.575684 65.9134 0.575684C61.8387 0.575684 59.7093 2.25835 59.7093 5.01589C59.7093 7.24506 61.0881 8.40117 63.9665 8.90762L67.5945 9.55583C69.3384 9.8597 70.1306 10.4289 70.1306 11.6436C70.1306 13.1849 68.7106 14.1385 66.0543 14.1385C63.0145 14.1385 61.5133 13.0235 61.432 10.7116H59.224C59.224 13.2904 60.4625 14.9545 62.8451 15.6662C59.6091 16.7195 57.2598 19.7609 57.2598 23.3462C57.2598 27.8011 60.8824 31.4238 65.3374 31.4238H110.547C115 31.4238 118.624 27.8011 118.624 23.3462C118.624 19.7745 116.293 16.7422 113.075 15.6783H113.081V2.88651ZM75.7292 8.31958C75.7292 4.71164 77.8786 2.54251 81.6079 2.54251C85.3598 2.54251 87.5077 4.71164 87.5077 8.31958C87.5077 11.909 85.3798 14.0969 81.629 14.0969C77.8786 14.0969 75.7292 11.9279 75.7292 8.31958ZM93.6959 2.68506H98.3372C101.176 2.68506 102.495 3.15028 102.495 5.13717C102.495 7.04243 101.216 7.63056 98.5197 7.63056H93.6959V2.68506ZM93.6959 9.3529H99.1891C101.581 9.3529 102.046 10.0222 102.229 12.9011C102.306 14.0599 102.371 14.7916 102.473 15.2679H93.6959V9.3529ZM116.773 23.3462C116.773 26.7799 113.98 29.5718 110.547 29.5718H65.3374C61.904 29.5718 59.1117 26.7799 59.1117 23.3462C59.1117 19.9117 61.904 17.1198 65.3374 17.1198H110.547C113.98 17.1198 116.773 19.9117 116.773 23.3462Z" fill="#4B5256"/>
<path d="M67.7485 19.6846C65.731 19.6846 64.0884 21.3271 64.0884 23.3458C64.0884 25.3644 65.731 27.0059 67.7485 27.0059C69.7656 27.0059 71.4082 25.3644 71.4082 23.3458C71.4082 21.3271 69.7656 19.6846 67.7485 19.6846ZM67.7485 25.1554C66.7511 25.1554 65.9388 24.3432 65.9388 23.3458C65.9388 22.3472 66.7511 21.5354 67.7485 21.5354C68.7455 21.5354 69.5577 22.3472 69.5577 23.3458C69.5577 24.3432 68.7455 25.1554 67.7485 25.1554Z" fill="#4B5256"/>
<path d="M87.9425 19.6846C85.925 19.6846 84.2812 21.3271 84.2812 23.3458C84.2812 25.3644 85.925 27.0059 87.9425 27.0059C89.9596 27.0059 91.6026 25.3644 91.6026 23.3458C91.6026 21.3271 89.9596 19.6846 87.9425 19.6846ZM87.9425 25.1554C86.945 25.1554 86.1332 24.3432 86.1332 23.3458C86.1332 22.3472 86.945 21.5354 87.9425 21.5354C88.9399 21.5354 89.7517 22.3472 89.7517 23.3458C89.7517 24.3432 88.9399 25.1554 87.9425 25.1554Z" fill="#4B5256"/>
<path d="M104.477 23.3458C104.477 25.3633 106.118 27.0059 108.137 27.0059C110.155 27.0059 111.797 25.3633 111.797 23.3458C111.797 21.3286 110.155 19.6846 108.137 19.6846C106.118 19.6846 104.477 21.3286 104.477 23.3458ZM109.946 23.3458C109.946 24.3432 109.134 25.1551 108.137 25.1551C107.138 25.1551 106.327 24.3432 106.327 23.3458C106.327 22.3483 107.138 21.5365 108.137 21.5365C109.134 21.5365 109.946 22.3483 109.946 23.3458Z" fill="#4B5256"/>
</svg>
