<svg width="192" height="64" viewBox="0 0 192 64" fill="none" xmlns="http://www.w3.org/2000/svg">
<path d="M24.3995 49.4001C24.1995 50 23.7995 50 23.3995 49.5C22.5995 48.7001 21.9995 46.8001 23.2995 43.4001C25.3995 38.0001 34.4995 23.1001 40.4995 14.9001C40.9995 14.2001 41.5995 13.9001 42.2995 14.6001C44.4995 16.5001 45.0995 18.5001 43.5995 22.9001C41.7995 28.3001 39.7995 34.8001 37.6995 42.7001C43.7995 32.7001 51.9995 24.4001 58.0995 14.8001C58.5995 14.0001 59.0995 14.0001 59.6995 14.6001C61.8995 16.9001 61.3995 20.0001 59.8995 22.8001C56.0995 30.0001 50.4995 41.3001 47.6995 49.4001C47.4995 50 47.2995 50 46.7995 49.6C45.8995 48.9 45.1995 47.2001 46.1995 43.5001C46.9995 40.2001 50.5995 32.4001 54.2995 25.4001C47.7995 33.0001 41.2995 41.6 37.2995 49.1C36.9995 49.7 36.6995 49.8 36.2995 49.5C34.4995 48.2001 33.5995 46.2001 34.1995 42.7001C34.6995 39.5001 36.5995 31.8001 38.9995 24.3001C33.9995 31.8001 27.6995 41.9001 24.3995 49.4001Z" fill="#FFCF26"/>
<path d="M90.7995 49.6001C86.1995 49.6001 84.9995 46.1001 86.5995 41.4001C88.4995 35.9001 93.3995 30.0001 92.4995 29.6001C91.7995 29.4001 88.6995 30.8001 85.0995 34.8001C81.8995 38.3001 79.1995 43.7001 76.8995 49.0001C76.6995 49.4001 76.2995 49.7001 75.7995 49.2001C74.7995 48.1001 74.3995 46.3001 75.3995 43.5001C75.9995 41.8001 77.1995 38.9001 78.8995 35.9001C77.3995 36.9001 75.6995 37.4001 73.6995 37.3001C72.5995 42.1001 68.9995 47.8001 64.8995 49.2001C62.8995 49.9001 59.9995 49.8001 57.7995 46.8001C55.2995 43.5001 56.1995 38.6001 58.6995 34.2001C60.8995 30.4001 64.1995 27.2001 67.5995 26.9001C69.2995 26.7001 70.1995 27.2001 71.3995 28.7001C72.6995 30.5001 74.3995 30.8001 74.0995 34.9001C74.0995 35.2001 74.0995 35.6001 73.9995 35.9001C77.4995 35.8001 81.1995 31.8001 84.1995 27.2001C84.5995 26.6001 84.9995 26.6001 85.3995 27.1001C86.1995 28.5001 86.1995 30.4001 85.5995 32.4001C88.0995 29.8001 91.7995 26.7001 93.6995 27.0001C95.4995 27.2001 97.2995 30.1001 95.8995 32.9001C94.6995 35.4001 91.9995 39.5001 90.6995 42.4001C89.1995 45.6001 89.4995 48.1001 91.6995 48.1001C93.8995 48.0001 96.5995 44.4001 98.7995 40.4001C98.9995 40.0001 99.5995 40.0001 99.7995 40.4001C100.1 41.1001 100.099 42.2001 99.1995 43.9001C97.5995 46.8001 94.0995 49.6001 90.7995 49.6001ZM66.3995 30.9001C64.7995 32.2001 63.2995 34.1001 61.9995 36.2001C59.4995 40.4001 58.7995 45.6001 60.2995 46.8001C61.7995 48.0001 65.2995 46.1001 67.9995 41.0001C68.9995 39.2001 69.5995 37.6001 70.0995 36.2001C68.0995 35.3001 66.4995 33.1001 66.3995 30.9001ZM70.7995 30.9001C70.4995 29.1001 69.2995 29.4001 69.0995 31.1001C68.8995 32.3001 69.2995 34.0001 70.3995 34.9001C70.7995 33.3001 70.9995 31.9001 70.7995 30.9001Z" fill="#FFCF26"/>
<path d="M150.999 43.8001C149.399 46.9001 145.799 49.8001 142.699 49.7001C137.899 49.6001 136.199 45.8001 138.199 41.3001C140.199 36.6001 145.2 30.4001 144.399 30.1001C143.999 29.9001 141.999 30.7001 138.399 34.2001C133.799 38.8001 131.099 44.1001 128.699 49.3001C128.399 50.0001 127.899 50.1001 127.399 49.6001C126.499 48.7001 125.799 46.6001 127.299 42.6001C129.1 38.0001 135.099 30.3001 133.999 29.8001C133.399 29.6001 130.599 31.1001 127.099 35.0001C123.899 38.5001 121.2 43.7001 118.899 48.9001C118.7 49.3001 118.399 49.5001 117.799 49.1001C116.6 48.1001 116.299 46.2001 117.199 43.4001C117.799 41.6001 119.2 38.7001 120.799 35.6001C119.2 36.7001 117.599 37.2001 115.599 37.0001C114.499 41.8001 110.999 47.6001 106.799 49.0001C104.799 49.7001 101.899 49.6001 99.6995 46.6001C97.2995 43.4001 98.0995 38.4001 100.699 34.0001C102.799 30.2001 106.199 26.9001 109.599 26.7001C111.299 26.6001 112.2 27.1001 113.399 28.6001C114.7 30.3001 116.399 30.6001 116.099 34.8001C116.099 35.1 116.099 35.4001 115.999 35.7001C119.599 35.6001 123.199 31.5001 126.099 27.0001C126.399 26.4001 126.999 26.4001 127.299 27.0001C128.2 28.5001 127.999 30.6 127.199 32.8001C129.699 30.0001 133.799 26.7001 135.799 26.8001C137.7 26.9001 138.699 29.8001 137.999 32.3001C140.599 29.8001 144.399 27.1001 146.199 27.2001C148.199 27.3001 148.699 30.6001 147.499 33.2001C146.399 35.7001 143.7 39.4001 142.399 42.2001C140.799 45.4001 141.599 48.0001 143.599 47.9001C145.799 47.8001 148.399 44.1001 150.499 40.2001C150.799 39.7001 151.199 39.8001 151.499 40.2001C151.799 40.6001 151.699 42.4001 150.999 43.8001ZM108.299 31.0001C106.799 32.3001 105.199 34.2001 103.999 36.3001C101.499 40.5 100.799 45.6001 102.299 46.9001C103.799 48.2001 107.199 46.2001 109.999 41.1001C110.999 39.4001 111.599 37.7001 111.999 36.3001C109.999 35.2001 108.399 33.2001 108.299 31.0001ZM112.699 31.0001C112.399 29.2001 111.199 29.5001 110.999 31.2001C110.799 32.4001 111.2 34.0001 112.299 35.0001C112.7 33.3001 112.899 32.0001 112.699 31.0001Z" fill="#FFCF26"/>
<path d="M167.299 37.4001C166.1 42.2001 162.6 47.8001 158.499 49.2001C156.499 49.9001 153.699 49.6001 151.399 46.7001C148.899 43.5001 149.799 38.6001 152.299 34.1001C154.4 30.3001 157.799 27.0001 161.199 26.8001C162.899 26.7001 163.899 27.2001 164.999 28.7001C166.299 30.4001 167.999 30.8001 167.6 34.9001C167.499 35.3001 167.499 35.7001 167.499 36.2001C167.799 36.2001 168.2 36.1001 168.6 36.1001C168.999 36.1001 168.999 36.4001 168.799 36.7001C168.4 37.1001 167.799 37.3001 167.299 37.4001ZM162.499 36.0001C161.299 35.1001 159.999 33.1001 159.899 31.1001C158.399 32.4001 156.799 34.2001 155.6 36.4001C153.2 40.7001 152.399 45.8001 153.899 47.0001C155.499 48.3001 158.9 46.3001 161.6 41.2001C162.4 39.6001 163.1 38.1001 163.6 36.7001C163.2 36.5001 162.899 36.3001 162.499 36.0001ZM164.399 31.0001C164.099 29.2001 162.999 29.5001 162.699 31.2001C162.399 32.7001 162.999 34.3001 163.899 35.2001C164.399 33.4001 164.599 32.0001 164.399 31.0001Z" fill="#FFCF26"/>
</svg>
