<svg width="196" height="192" viewBox="0 0 196 192" fill="none" xmlns="http://www.w3.org/2000/svg">
<g clip-path="url(#clip0_10_9155)">
<circle cx="41.8901" cy="91.875" r="9.72794" fill="white"/>
<circle cx="21.5368" cy="167.537" r="20.5368" fill="white"/>
<circle cx="90.5" cy="140.5" r="51.5" fill="#FFCF26"/>
<circle cx="156.294" cy="80.2941" r="15.1324" fill="#FFCF26" stroke="#FFCF26" stroke-width="4.32353"/>
<path d="M173.475 225.662C222.531 225.662 222.966 150 174.025 150C124.969 150 124.534 225.662 173.475 225.662Z" fill="white"/>
<path fill-rule="evenodd" clip-rule="evenodd" d="M174.246 206.494H166.087V192.213H182.402V206.494H174.246ZM162.992 181.613C162.992 183.049 165.9 183.049 165.9 181.613C165.9 176.604 167.808 166.31 174.246 166.31C180.675 166.31 182.581 176.604 182.581 181.613C182.581 183.049 185.491 183.049 185.491 181.613C185.491 175.203 182.109 164.124 174.246 164.124C166.381 164.124 162.992 175.203 162.992 181.613ZM166.087 190.036V184.541C167.221 184.054 168.051 183.081 168.051 181.613C168.051 180.392 168.173 178.84 168.459 177.231H174.246H180.023C180.307 178.84 180.43 180.392 180.43 181.613C180.43 183.081 181.268 184.054 182.402 184.541V190.036H166.087ZM162.779 184.517V206.494H151.206C149.326 206.494 147.695 204.941 147.785 203.036L148.649 185.167C148.859 180.804 152.176 177.231 156.487 177.231H161.248C160.961 178.8 160.832 180.292 160.832 181.613C160.832 183.072 161.654 184.038 162.779 184.517ZM187.242 177.231H192.003C196.304 177.231 199.63 180.804 199.841 185.167L200.698 203.036C200.786 204.934 199.157 206.494 197.284 206.494H185.71V184.517C186.826 184.038 187.651 183.072 187.651 181.613C187.651 180.292 187.519 178.8 187.242 177.231Z" fill="#4B5256"/>
<circle cx="195.647" cy="110.647" r="6.48529" fill="white" stroke="white" stroke-width="4.32353"/>
<path d="M94.4752 105.662C143.531 105.662 143.966 30 95.0249 30C45.9687 30 45.5338 105.662 94.4752 105.662Z" fill="white"/>
<path fill-rule="evenodd" clip-rule="evenodd" d="M94.814 40.7933C97.3946 40.7933 99.564 43.5466 100.153 47.2505C99.3497 46.9853 98.4881 46.7805 97.5701 46.6511C97.1977 44.2084 96.1043 42.4448 94.814 42.4448C93.515 42.4448 92.4305 44.2084 92.0494 46.6511C91.1488 46.7805 90.2762 46.9853 89.4751 47.2505C90.064 43.5466 92.2312 40.7933 94.814 40.7933ZM94.814 91.105H82.0669C79.9972 91.1136 78.5983 89.79 78.5226 87.5779C78.2714 73.5749 77.6068 48.4599 94.814 48.4599C112.013 48.4599 111.357 73.5749 111.097 87.5779C111.021 89.79 109.616 91.1136 107.553 91.105H94.814ZM85.4052 72.2661C84.4656 72.2661 83.6927 73.0337 83.6927 73.9694V75.8946H105.927V73.9694C105.927 73.0337 105.163 72.2661 104.223 72.2661H85.4052ZM105.927 77.9106H83.6927V85.1504C83.6927 86.086 84.4656 86.8534 85.4052 86.8534H104.223C105.163 86.8534 105.927 86.086 105.927 85.1504V77.9106ZM91.8198 54.4924C91.2937 54.4924 90.8655 54.9256 90.8655 55.4582V58.2178C90.8655 58.7438 91.2937 59.1772 91.8198 59.1772H97.7997C98.3345 59.1772 98.763 58.7438 98.763 58.2178V55.4582C98.763 54.9256 98.3345 54.4924 97.7997 54.4924H91.8198ZM113.037 88.4597C123.493 83.2724 120.935 64.5694 109.378 56.1201C110.121 57.6853 110.707 59.3972 111.188 61.1845C117.009 67.8788 118.735 79.3787 113.175 84.0938C113.16 85.0813 113.136 86.1098 113.121 87.0907C113.112 87.5629 113.106 87.9875 113.037 88.4597ZM76.5914 88.4597C76.5222 88.0026 76.5138 87.5543 76.5073 87.0907C76.4921 86.1098 76.4683 85.0813 76.4532 84.0938C70.8935 79.3787 72.6187 67.8788 78.4317 61.1845C78.9123 59.3972 79.5079 57.6853 80.2419 56.1201C68.6939 64.5694 66.1346 83.2724 76.5914 88.4597Z" fill="#4B5256"/>
</g>
<defs>
<clipPath id="clip0_10_9155">
<path d="M0 0H196V162C196 178.569 182.569 192 166 192H0V0Z" fill="white"/>
</clipPath>
</defs>
</svg>
