<svg width="192" height="64" viewBox="0 0 192 64" fill="none" xmlns="http://www.w3.org/2000/svg">
<path d="M23.6152 16.5729H34.2562V27.1145H44.7816V37.6562H34.2562V48.0833H23.6152V37.5416H34.1406V27.1145H23.6152V16.5729Z" fill="#FFCF26"/>
<path fill-rule="evenodd" clip-rule="evenodd" d="M94.0537 32.1562C94.0537 27.802 94.979 24.3645 96.9453 21.9583C99.0272 19.552 101.803 18.2916 105.504 18.2916C107.355 18.2916 109.09 18.6354 110.478 19.3229C111.866 20.0104 113.138 20.927 114.063 22.0729C114.989 23.3333 115.683 24.7083 116.145 26.427C116.608 28.1458 116.839 29.9791 116.839 32.0416C116.839 36.5104 115.798 39.8333 113.832 42.2395C111.866 44.6458 109.09 45.7916 105.504 45.7916C103.538 45.7916 101.919 45.4479 100.415 44.7604C99.0272 44.0729 97.8706 43.1562 96.8296 42.0104C95.9043 40.75 95.2103 39.375 94.7477 37.6562C94.285 36.052 94.0537 34.2187 94.0537 32.1562ZM99.6055 32.1562C99.6055 33.5312 99.7212 34.677 99.9525 35.8229C100.184 36.9687 100.531 37.8854 100.993 38.6875C101.456 39.4895 102.034 40.177 102.844 40.5208C103.654 40.8645 104.463 41.2083 105.504 41.2083C107.355 41.2083 108.743 40.5208 109.784 39.0312C110.825 37.5416 111.287 35.25 111.287 32.0416C111.287 30.7812 111.172 29.5208 110.94 28.4895C110.709 27.3437 110.362 26.427 109.899 25.625C109.437 24.8229 108.859 24.1354 108.049 23.677C107.355 23.2187 106.43 22.9895 105.389 22.9895C103.538 22.9895 102.15 23.677 101.109 25.1666C100.068 26.6562 99.6055 28.9479 99.6055 32.1562Z" fill="#FFCF26"/>
<path fill-rule="evenodd" clip-rule="evenodd" d="M69.7646 19.0937C70.8056 18.8645 71.9622 18.7499 73.3502 18.6353C74.6225 18.5208 75.8948 18.5208 77.1671 18.5208C78.4394 18.5208 79.8273 18.6353 81.0996 18.8645C82.3719 18.9791 83.6442 19.4374 84.6851 20.1249C85.7261 20.8124 86.6514 21.6145 87.3454 22.7603C88.0393 23.9062 88.3863 25.3958 88.3863 27.2291C88.3863 28.9478 88.0393 30.3228 87.461 31.4687C86.8827 32.6145 86.0731 33.5312 85.1478 34.3333C84.2225 35.0208 83.0659 35.5937 81.7936 35.9374C80.5213 36.2812 79.249 36.3958 77.9767 36.3958H75.5478C75.2008 36.3958 75.0851 36.3958 74.9695 36.2812V45.4478H69.7646V19.0937ZM77.514 22.9895H76.0104C75.7625 22.9895 75.5478 23.0224 75.3485 23.053C75.1759 23.0794 75.0148 23.1041 74.8538 23.1041V31.6978C74.9695 31.6978 75.0851 31.6978 75.3165 31.8124H77.1671C77.861 31.8124 78.555 31.6978 79.249 31.5833C79.943 31.4687 80.5213 31.2395 81.0996 30.8958C81.6779 30.552 82.0249 30.0937 82.3719 29.5208C82.7189 28.9478 82.8345 28.1458 82.8345 27.1145C82.8345 26.3124 82.7189 25.6249 82.3719 25.052C82.0249 24.4791 81.6779 24.0208 81.2153 23.7916C80.7526 23.4478 80.1743 23.2187 79.4803 23.1041C78.7863 22.9895 78.208 22.9895 77.514 22.9895Z" fill="#FFCF26"/>
<path d="M134.998 36.2813C135.577 36.7396 135.924 37.4271 135.924 38.2292C135.924 39.2604 135.461 40.0625 134.883 40.4062C134.073 40.9792 132.801 41.2083 131.297 41.2083C130.603 41.2083 129.909 41.2083 129.331 41.0938L127.596 40.75C127.018 40.6354 126.555 40.5208 126.092 40.2917C125.745 40.1771 125.283 39.9479 125.051 39.8333L123.316 44.3021C124.01 44.6458 125.051 44.9896 126.555 45.3333C128.059 45.6771 129.794 45.9062 131.644 45.9062C133.032 45.9062 134.304 45.7917 135.577 45.4479C136.849 45.1042 137.89 44.6458 138.7 43.9583C139.509 43.2708 140.203 42.4688 140.666 41.4375C141.128 40.4063 141.36 39.1458 141.36 37.7708C141.36 36.3958 141.013 35.1354 140.434 34.2188C139.856 33.3021 139.162 32.5 138.237 31.8125C137.427 31.2396 136.386 30.6667 135.345 30.2083C134.304 29.75 133.379 29.2917 132.454 28.8333C131.644 28.375 130.834 27.9167 130.256 27.4583C129.678 26.8854 129.331 26.3125 129.331 25.5104C129.331 24.7083 129.562 24.0208 130.256 23.5625C130.834 23.1042 131.76 22.875 133.032 22.875C134.304 22.875 135.461 22.9896 136.618 23.3333C137.774 23.5625 138.584 23.9062 139.162 24.25L140.781 19.8958C139.972 19.4375 138.815 18.9792 137.427 18.75C136.039 18.5208 134.536 18.4062 133.032 18.4062C131.644 18.4062 130.372 18.5208 129.331 18.8646C128.174 19.0938 127.249 19.5521 126.439 20.2396C125.63 20.9271 125.051 21.7292 124.589 22.6458C124.126 23.5625 123.895 24.7083 123.895 25.9688C123.895 27.4583 124.242 28.7187 124.82 29.6354C125.398 30.5521 126.092 31.3542 127.018 32.0417C127.827 32.6146 128.868 33.1875 129.909 33.6458C130.28 33.8089 130.65 33.9575 131.01 34.1019C131.662 34.3633 132.279 34.611 132.801 34.9062C133.61 35.3646 134.42 35.8229 134.998 36.2813Z" fill="#FFCF26"/>
<path d="M167.384 23.4478H159.634V45.3333H154.43V23.4478H146.564V18.8645H167.384V23.4478Z" fill="#FFCF26"/>
<path d="M44.7817 37.5416H55.4227V48.0833H44.7817V37.5416Z" fill="#FFCF26"/>
<path d="M55.4227 16.5729H44.7817L44.7816 27.1145L55.4227 27.1145V16.5729Z" fill="#FFCF26"/>
</svg>
