<svg width="192" height="64" viewBox="0 0 192 64" fill="none" xmlns="http://www.w3.org/2000/svg">
<g id="monomo 1">
<g id="Vector">
<path d="M75.2178 14.4306C76.657 14.4306 77.8237 13.2864 77.8237 11.875C77.8237 10.4636 76.657 9.31946 75.2178 9.31946C73.7785 9.31946 72.6118 10.4636 72.6118 11.875C72.6118 13.2864 73.7785 14.4306 75.2178 14.4306Z" fill="#FFCF26"/>
<path d="M86.0976 14.4306C87.5369 14.4306 88.7036 13.2864 88.7036 11.875C88.7036 10.4636 87.5369 9.31946 86.0976 9.31946C84.6584 9.31946 83.4917 10.4636 83.4917 11.875C83.4917 13.2864 84.6584 14.4306 86.0976 14.4306Z" fill="#FFCF26"/>
<path d="M97.4658 14.4306C98.905 14.4306 100.072 13.2864 100.072 11.875C100.072 10.4636 98.905 9.31946 97.4658 9.31946C96.0266 9.31946 94.8599 10.4636 94.8599 11.875C94.8599 13.2864 96.0266 14.4306 97.4658 14.4306Z" fill="#FFCF26"/>
<path d="M35.0214 28.9014C35.0214 26.6653 34.9889 24.8125 34.826 22.9917H38.3766L38.572 26.5056H38.7023C39.9401 24.4292 42.0248 22.5125 45.6731 22.5125C48.7025 22.5125 51.0153 24.3014 51.9599 26.8889H52.0576C52.7417 25.675 53.6212 24.7167 54.5333 24.0458C55.8688 23.0556 57.3346 22.5125 59.452 22.5125C62.3836 22.5125 66.7485 24.3972 66.7485 31.9681V44.8097H62.8071V32.4792C62.8071 28.2944 61.2435 25.7708 57.9861 25.7708C55.6734 25.7708 53.9144 27.4319 53.1977 29.3806C53.0023 29.9236 52.872 30.6264 52.872 31.3611V44.8417H48.9305V31.7444C48.9305 28.2625 47.367 25.7389 44.305 25.7389C41.7643 25.7389 39.9401 27.7194 39.2886 29.7C39.0606 30.275 38.9629 30.9458 38.9629 31.6486V44.8097H35.0214V28.9014Z" fill="#FFCF26"/>
<path d="M73.3285 44.8097V23.0236H77.3677V44.8097H73.3285Z" fill="#FFCF26"/>
<path d="M84.0779 44.8097V23.0236H88.1171V44.8097H84.0779Z" fill="#FFCF26"/>
<path d="M94.8274 44.8097V23.0236H98.8665V44.8097H94.8274Z" fill="#FFCF26"/>
<path d="M105.023 40.7528C106.228 41.5194 108.346 42.3181 110.365 42.3181C113.297 42.3181 114.698 40.8806 114.698 39.0597C114.698 37.175 113.557 36.1208 110.561 35.0667C106.554 33.6611 104.697 31.5208 104.697 28.9014C104.697 25.3875 107.596 22.5125 112.352 22.5125C114.6 22.5125 116.587 23.1514 117.825 23.8542L116.815 26.7292C115.935 26.1861 114.339 25.4833 112.254 25.4833C109.877 25.4833 108.541 26.825 108.541 28.4542C108.541 30.2431 109.877 31.0736 112.776 32.1597C116.619 33.5972 118.606 35.4819 118.606 38.7403C118.606 42.5736 115.577 45.2569 110.3 45.2569C107.857 45.2569 105.609 44.6819 104.046 43.7556L105.023 40.7528Z" fill="#FFCF26"/>
<path d="M123.199 40.7528C124.405 41.5194 126.522 42.3181 128.541 42.3181C131.473 42.3181 132.874 40.8806 132.874 39.0597C132.874 37.175 131.734 36.1208 128.737 35.0667C124.73 33.6611 122.874 31.5208 122.874 28.9014C122.874 25.3875 125.773 22.5125 130.528 22.5125C132.776 22.5125 134.763 23.1514 136.001 23.8542L134.991 26.7292C134.112 26.1861 132.516 25.4833 130.431 25.4833C128.053 25.4833 126.717 26.825 126.717 28.4542C126.717 30.2431 128.053 31.0736 130.952 32.1597C134.796 33.5972 136.783 35.4819 136.783 38.7403C136.783 42.5736 133.753 45.2569 128.476 45.2569C126.033 45.2569 123.786 44.6819 122.222 43.7556L123.199 40.7528Z" fill="#FFCF26"/>
<path d="M143.428 23.0236L148.281 35.8972C148.803 37.3347 149.324 39.0597 149.715 40.3694H149.812C150.236 39.0597 150.692 37.3986 151.246 35.8333L155.643 23.0556H159.91L153.852 38.5806C150.952 46.0556 148.998 49.8889 146.229 52.2208C144.242 53.9458 142.288 54.6167 141.278 54.7764L140.268 51.4542C141.278 51.1347 142.613 50.4958 143.819 49.5056C144.926 48.6431 146.294 47.1097 147.206 45.0972C147.402 44.6819 147.532 44.3625 147.532 44.1389C147.532 43.9153 147.434 43.5958 147.272 43.1167L139.063 23.0236H143.428Z" fill="#FFCF26"/>
</g>
</g>
</svg>
