<svg width="16" height="16" viewBox="0 0 16 16" fill="none" xmlns="http://www.w3.org/2000/svg">
<path d="M0.92888 13.6569C0.538355 14.0474 0.538355 14.6806 0.92888 15.0711C1.3194 15.4616 1.95257 15.4616 2.34309 15.0711L0.92888 13.6569ZM15.3639 1.63609C15.3639 1.08381 14.9162 0.636092 14.3639 0.636091L5.36391 0.636092C4.81162 0.636092 4.36391 1.08381 4.36391 1.63609C4.36391 2.18838 4.81162 2.63609 5.36391 2.63609L13.3639 2.63609L13.3639 10.6361C13.3639 11.1884 13.8116 11.6361 14.3639 11.6361C14.9162 11.6361 15.3639 11.1884 15.3639 10.6361L15.3639 1.63609ZM2.34309 15.0711L15.071 2.3432L13.6568 0.928985L0.92888 13.6569L2.34309 15.0711Z" fill="#2D3E50"/>
</svg>
