<svg width="56" height="56" viewBox="0 0 56 56" fill="none" xmlns="http://www.w3.org/2000/svg">
<g id="Frame 8">
<path id="Vector" d="M0 27.19V28.4137C0 43.3288 12.4738 55.8949 27.7974 55.9995C42.9742 56.0931 56 43.7253 56 28.8102V27.5865C56 12.6651 43.5246 0.0943065 28.2026 0.000657754C13.0306 -0.103917 0 12.2749 0 27.19Z" fill="white"/>
<path id="Vector_2" fill-rule="evenodd" clip-rule="evenodd" d="M22.9875 6.31069H33.0134C33.1027 6.23265 33.2272 6.1889 33.3565 6.1889C33.6661 6.1889 33.9197 6.43711 33.9197 6.73366V24.85H32.7996V9.02961C31.1959 8.83763 29.5857 8.42404 27.9757 8.42404C26.3815 8.42404 24.7939 8.83135 23.1966 9.02489V24.85H22.0812V6.73366C22.0812 6.43711 22.335 6.1889 22.6381 6.1889C22.7738 6.1889 22.8918 6.23265 22.9875 6.31069ZM28.0028 45.5526H16.4962C15.1175 45.5526 14.3514 44.8096 14.2286 43.5266C13.9924 40.174 14.6453 31.5677 15.1352 28.3353C15.3825 26.9087 16.2107 26.2984 17.7011 26.3031H28.0028H38.3001C39.7857 26.2984 40.6123 26.9087 40.866 28.3353C41.3559 31.5677 42.0035 40.174 41.7673 43.5266C41.6492 44.8096 40.8771 45.5526 39.4984 45.5526H28.0028ZM20.6292 34.5567C20.2239 34.5567 19.8918 34.8876 19.8918 35.2887C19.8918 35.6914 20.2239 36.0161 20.6292 36.0161H35.3608C35.7725 36.0161 36.1091 35.6914 36.1091 35.2887C36.1091 34.8876 35.7725 34.5567 35.3608 34.5567H20.6292ZM28.0028 44.1979H38.091C38.7324 44.1979 39.2557 44.0106 39.6387 43.6641C40.0392 43.3114 40.2643 42.8165 40.3265 42.2047V42.1829C40.3983 41.1699 40.3536 39.5794 40.2467 37.9218C40.1238 35.8834 39.9036 33.7591 39.7297 32.5635V32.5479C39.6116 31.897 39.3468 31.4179 38.9128 31.0886C38.4963 30.7577 37.9618 30.6094 37.3028 30.6141V30.6094H28.0028H18.6919V30.6141C18.0281 30.6094 17.4983 30.7577 17.0818 31.0886C16.6542 31.4179 16.3846 31.897 16.2665 32.5479V32.5635C16.091 33.7591 15.8772 35.8834 15.7479 37.9218C15.641 39.5794 15.5963 41.1699 15.6697 42.1829L15.6744 42.2047C15.7318 42.8165 15.9567 43.3114 16.3557 43.6641C16.745 44.0106 17.2572 44.1979 17.8987 44.1979H28.0028ZM17.8987 42.7447H28.0028H38.091C38.3495 42.7447 38.536 42.69 38.6429 42.5901C38.7546 42.4965 38.8235 42.3264 38.8458 42.0891C38.9128 41.137 38.8681 39.6059 38.766 38.0155C38.6431 36.027 38.4341 33.9574 38.2602 32.7899C38.2091 32.5089 38.1195 32.3216 37.9903 32.2171C37.8546 32.1125 37.6186 32.0625 37.309 32.0625L37.3028 32.0688H28.0028H18.6919V32.0625C18.3711 32.0625 18.146 32.1125 18.0056 32.2171C17.8763 32.3216 17.7919 32.5089 17.736 32.7899C17.5669 33.9574 17.3531 36.027 17.2286 38.0155C17.1329 39.6059 17.0818 41.137 17.1504 42.0891C17.1727 42.3264 17.2397 42.4965 17.353 42.5901C17.4599 42.69 17.645 42.7447 17.8987 42.7447ZM24.4283 24.85H25.2455V24.5909C25.2455 24.2928 25.4307 24.0899 25.7354 24.1117C26.5461 24.2163 27.1985 24.2772 28.0028 24.2772C28.7974 24.2772 29.4501 24.2163 30.2608 24.1117C30.5703 24.0899 30.7554 24.2928 30.7554 24.5909V24.85H31.566V23.8417C31.566 23.4125 31.2627 23.2315 30.851 23.1378C28.9601 22.6914 27.0407 22.6914 25.1498 23.1378C24.7381 23.2315 24.4347 23.4125 24.4283 23.8417V24.85Z" fill="#4B5256"/>
</g>
</svg>
