<svg width="54" height="54" viewBox="0 0 54 54" fill="none" xmlns="http://www.w3.org/2000/svg">
<g id="Frame 300096">
<path id="Vector" d="M26.7979 54C62.8392 54 63.159 0 27.2021 0C-8.83915 0 -9.15902 54 26.7979 54Z" fill="white"/>
<path id="Vector_2" d="M16.698 17.2095C17.5193 15.1814 19.0059 13.4703 20.8927 12.297C20.9843 12.8891 21.2625 13.4439 21.6643 13.8822C20.565 14.611 19.6344 15.559 18.9594 16.6671C18.1719 16.8209 17.4116 17.0012 16.698 17.2095ZM45.7722 35.2585C45.4716 37.8507 43.567 40 40.8621 40H13.1365C10.4444 40 8.53847 37.8507 8.22668 35.2585C8.00649 33.3719 7.9485 31.6623 8.04493 30.1269H45.9602C46.0502 31.6623 45.9875 33.3672 45.7722 35.2585ZM8.19278 28.6786C8.28921 27.9559 8.43054 27.2814 8.61215 26.6458H45.404C45.5743 27.2814 45.7206 27.9559 45.8171 28.6786H8.19278ZM9.10561 25.1974C11.4698 19.4908 17.5883 17.4566 27.0001 17.4566C36.4343 17.4566 42.5579 19.4628 44.9108 25.1974H9.10561ZM23.3647 10.5332C21.5004 11.1128 22.4357 13.8604 24.2663 13.3009C25.1566 13.032 26.0696 12.9015 26.9938 12.9015C27.9179 12.9015 28.8371 13.032 29.7163 13.3009C31.5983 13.8759 32.4934 11.1128 30.6162 10.5332C29.443 10.1819 28.2185 10 26.9938 10C25.7643 10 24.5396 10.1819 23.3647 10.5332ZM33.1237 12.3094C34.9993 13.4765 36.4794 15.1767 37.2958 17.1939C36.5758 16.9856 35.8284 16.8038 35.0344 16.6561C34.3642 15.559 33.4467 14.6172 32.3634 13.9039C32.7717 13.4547 33.0321 12.9015 33.1237 12.3094Z" fill="#4B5256"/>
</g>
</svg>
