<svg width="75" height="75" viewBox="0 0 75 75" fill="none" xmlns="http://www.w3.org/2000/svg">
<g id="Frame 7">
<path id="Vector" d="M37.2195 75C87.2768 75 87.7207 0 37.7805 0C-12.2768 0 -12.7207 75 37.2195 75Z" fill="white"/>
<path id="Vector_2" fill-rule="evenodd" clip-rule="evenodd" d="M37.5655 10.6987C40.1988 10.6987 42.4124 13.4279 43.0133 17.0994C42.1937 16.8366 41.3145 16.6335 40.3778 16.5053C39.9979 14.0839 38.8821 12.3358 37.5655 12.3358C36.24 12.3358 35.1333 14.0839 34.7445 16.5053C33.8255 16.6335 32.9351 16.8366 32.1177 17.0994C32.7186 13.4279 34.93 10.6987 37.5655 10.6987ZM37.5655 60.5703H24.5582C22.4463 60.5789 21.0189 59.2668 20.9416 57.0741C20.6853 43.1936 20.0071 18.2982 37.5655 18.2982C55.115 18.2982 54.4459 43.1936 54.1808 57.0741C54.1034 59.2668 52.6695 60.5789 50.5641 60.5703H37.5655ZM27.9647 41.8962C27.0059 41.8962 26.2172 42.6571 26.2172 43.5846V45.493H48.9051V43.5846C48.9051 42.6571 48.1255 41.8962 47.1667 41.8962H27.9647ZM48.9051 47.4913H26.2172V54.6678C26.2172 55.5953 27.0059 56.356 27.9647 56.356H47.1667C48.1255 56.356 48.9051 55.5953 48.9051 54.6678V47.4913ZM34.5102 24.278C33.9734 24.278 33.5364 24.7074 33.5364 25.2353V27.9708C33.5364 28.4922 33.9734 28.9218 34.5102 28.9218H40.6121C41.1578 28.9218 41.595 28.4922 41.595 27.9708V25.2353C41.595 24.7074 41.1578 24.278 40.6121 24.278H34.5102ZM56.1599 57.9482C66.8302 52.8063 64.2193 34.2668 52.4268 25.8914C53.1845 27.443 53.7831 29.1399 54.2735 30.9116C60.2139 37.5473 61.9746 48.9466 56.3015 53.6205C56.286 54.5993 56.2617 55.6188 56.2462 56.5912C56.2374 57.0592 56.2306 57.4801 56.1599 57.9482ZM18.971 57.9482C18.9003 57.4951 18.8918 57.0507 18.8852 56.5912C18.8697 55.6188 18.8454 54.5993 18.8299 53.6205C13.1568 48.9466 14.9172 37.5473 20.8488 30.9116C21.3392 29.1399 21.9471 27.443 22.696 25.8914C10.9123 34.2668 8.3008 52.8063 18.971 57.9482Z" fill="#4B5256"/>
</g>
</svg>
