<svg width="75" height="75" viewBox="0 0 75 75" fill="none" xmlns="http://www.w3.org/2000/svg">
<rect width="75" height="75" fill="#F5F5F5"/>
<g id="&#208;&#158; &#208;&#189;&#208;&#176;&#209;&#129;" clip-path="url(#clip0_140_4320)">
<rect width="1920" height="4857" transform="translate(-1593 -2575)" fill="white"/>
<g id="&#208;&#159;&#208;&#190;&#209;&#135;&#208;&#181;&#208;&#188;&#209;&#131; &#208;&#178;&#209;&#139;&#208;&#177;&#208;&#184;&#209;&#128;&#208;&#176;&#209;&#142;&#209;&#130; &#208;&#189;&#208;&#176;&#209;&#129;">
<g id="Group 6">
<path id="Rectangle 5" d="M-1593 -387C-1593 -420.137 -1566.14 -447 -1533 -447H267C300.137 -447 327 -420.137 327 -387V684H-1593V-387Z" fill="#E9ECF2"/>
</g>
<g id="Frame 300071">
<rect x="-375" y="-16" width="476" height="476" rx="238" stroke="#838894" stroke-width="2"/>
</g>
<g id="Group 7">
<g id="Frame 6">
<path id="Vector" d="M37.2193 75C87.2766 75 87.7209 0 37.7807 0C-12.2766 0 -12.7209 75 37.2193 75Z" fill="#FFCF26"/>
<path id="Vector_2" fill-rule="evenodd" clip-rule="evenodd" d="M38.0049 56H29.6794V41.844H46.3277V56H38.0049ZM26.5207 31.3364C26.5207 32.7597 29.4884 32.7597 29.4884 31.3364C29.4884 26.3712 31.4356 16.1674 38.0049 16.1674C44.5649 16.1674 46.5095 26.3712 46.5095 31.3364C46.5095 32.7597 49.4794 32.7597 49.4794 31.3364C49.4794 24.9827 46.0286 14 38.0049 14C29.9788 14 26.5207 24.9827 26.5207 31.3364ZM29.6794 39.6859V34.2386C30.8368 33.7564 31.683 32.7921 31.683 31.3364C31.683 30.1264 31.8078 28.5873 32.1001 26.9925H38.0049H43.9001C44.19 28.5873 44.3149 30.1264 44.3149 31.3364C44.3149 32.7921 45.1703 33.7564 46.3277 34.2386V39.6859H29.6794ZM26.3039 34.2154V56H14.4947C12.576 56 10.9117 54.4609 11.0036 52.5718L11.8853 34.8598C12.0998 30.5344 15.4846 26.9925 19.883 26.9925H24.7414C24.4491 28.5479 24.3169 30.0267 24.3169 31.3364C24.3169 32.7828 25.156 33.7402 26.3039 34.2154ZM51.2662 26.9925H56.1241C60.5131 26.9925 63.9073 30.5344 64.1218 34.8598L64.9965 52.5718C65.0861 54.454 63.4245 56 61.5128 56H49.7032V34.2154C50.8417 33.7402 51.6833 32.7828 51.6833 31.3364C51.6833 30.0267 51.549 28.5479 51.2662 26.9925Z" fill="#4B5256"/>
</g>
</g>
</g>
</g>
<defs>
<clipPath id="clip0_140_4320">
<rect width="1920" height="4857" fill="white" transform="translate(-1593 -2575)"/>
</clipPath>
</defs>
</svg>
