<svg width="60" height="60" viewBox="0 0 60 60" fill="none" xmlns="http://www.w3.org/2000/svg">
<g clip-path="url(#clip0_612_358)">
<path d="M40.5938 25.2188H40.7812C42.375 24.8438 43.5 23.8125 43.9688 22.4062C44.625 20.3438 43.9688 18.2812 42.2812 17.1562C41.8125 16.875 41.4375 16.6875 40.9688 16.4062L40.6875 16.3125C40.5938 16.3125 40.5 16.2188 40.4062 16.125L40.125 15.9375C39.9375 15.8438 39.6562 15.75 39.4688 15.5625C39.2812 15.4688 39.1875 15.4688 39.0938 15.375C38.7188 15.1875 38.3438 15 38.0625 14.8125C37.3125 14.3437 37.0313 13.3125 37.4063 12.2813C37.6875 11.5313 38.1562 11.1562 38.9062 11.0625C39.375 10.9688 39.75 11.0625 40.0312 11.1562C40.6875 11.3437 41.1562 11.8125 41.3438 12.4688C41.3438 12.5625 41.4375 12.6563 41.4375 12.75C41.5312 13.3125 42.2812 13.7813 42.8438 13.6875C43.125 13.5938 43.4062 13.4062 43.5938 13.125C43.7812 12.8438 43.7812 12.5625 43.7812 12.1875C43.7812 12 43.6875 11.8125 43.6875 11.7188C43.2188 10.3125 42.2812 9.375 40.9688 8.90625L40.7812 8.8125L40.6875 8.625V7.6875C40.6875 7.03125 40.125 6.46875 39.4688 6.46875C38.8125 6.46875 38.25 7.03125 38.25 7.6875V8.71875H38.0625C36.5625 9.09375 35.5313 10.0312 35.0625 11.4375C34.4063 13.5 35.0625 15.5625 36.6562 16.6875C37.2188 17.0625 37.7812 17.3438 38.25 17.5313L38.4375 17.625C38.5312 17.625 38.625 17.7188 38.7188 17.7188L39.1875 17.9063L39.75 18.1875C40.2188 18.375 40.5 18.5625 40.875 18.75C41.625 19.2188 41.9063 20.25 41.625 21.2813C41.3438 22.0313 40.7812 22.5 39.9375 22.5938H38.8125C37.875 22.5 37.125 21.8438 36.9375 20.9062C36.8438 20.3438 36.375 19.9688 35.8125 19.9688H35.5313C34.875 20.1562 34.5 20.7188 34.6875 21.375C35.0625 23.1562 36.2812 24.375 37.9688 24.8438H38.1562L38.25 25.0313V26.25C38.25 26.9062 38.8125 27.4688 39.4688 27.4688C40.125 27.4688 40.6875 26.9062 40.6875 26.25V25.2188H40.5938ZM19.7812 33.8437C19.7812 32.3437 20.0625 30.9375 20.7187 29.7188L8.90625 21.375C6.75 25.0312 5.4375 29.25 5.4375 33.8437C5.4375 42.1875 9.65625 49.5 16.0312 53.9062L24.0938 42C21.4688 40.2187 19.7812 37.2187 19.7812 33.8437ZM15.4688 50.5312C10.5938 46.4062 7.6875 40.3125 7.6875 33.8437C7.6875 30.6562 8.34375 27.5625 9.65625 24.75L17.9062 30.5625C17.625 31.5937 17.4375 32.7187 17.4375 33.8437C17.4375 37.125 18.75 40.125 20.9062 42.375L15.4688 50.5312Z" fill="#4B5256"/>
<path d="M21.8437 17.25C21.8437 14.8125 22.3125 12.5625 23.25 10.4062C18.375 11.7188 14.0625 14.625 10.9688 18.375L22.7812 26.7188C23.1562 26.3438 23.625 25.9687 24.0938 25.6875C22.5938 23.1562 21.8437 20.25 21.8437 17.25ZM14.4375 18C16.0312 16.5 17.8125 15.1875 19.7813 14.1562C19.5938 15.1875 19.5938 16.125 19.5938 17.1562C19.5938 18.75 19.7812 20.4375 20.1562 22.0312L14.4375 18ZM53.1562 27.5625C51 30.4688 47.9062 32.7187 44.25 33.8437C43.3125 34.125 42.375 34.3125 41.3437 34.5C40.7812 34.5937 40.125 34.5938 39.5625 34.5938C39.4688 35.5313 39.2812 36.375 39 37.2188C38.7187 37.9688 38.3438 38.625 37.9688 39.2813C37.3125 40.3125 36.4687 41.25 35.4375 41.9062C34.7812 42.375 34.0312 42.75 33.1875 43.0313C32.0625 43.5 30.9375 43.6875 29.7188 43.6875C29.1562 43.6875 28.5 43.5938 27.9375 43.5C27.75 43.5 27.5625 43.4062 27.375 43.4062L26.25 45.1875L24.1875 48.1875L22.875 50.0625L19.125 55.5937C22.3125 57.1875 25.875 58.125 29.7188 58.125C30.75 58.125 31.6875 58.0312 32.7188 57.9375C33.75 57.8437 34.6875 57.6562 35.7187 57.375C37.125 57 38.4375 56.5312 39.75 55.9688L42 54.8438C43.125 54.1875 44.1562 53.4375 45.0937 52.6875C45.6562 52.2188 46.3125 51.6562 46.875 51.0938C47.7188 50.25 48.5625 49.3125 49.2188 48.375C49.6875 47.7188 50.0625 47.1562 50.5312 46.4062C51.1875 45.375 51.75 44.25 52.2188 43.125C52.5 42.375 52.7812 41.625 53.0625 40.7813C53.7187 38.625 54.0938 36.2812 54.0938 33.8437C54 31.6875 53.7188 29.5312 53.1562 27.5625ZM29.7188 55.7812C27.2812 55.7812 24.8438 55.4062 22.5938 54.6562L24.6562 51.5625L30 55.7812H29.7188ZM33.375 55.5L26.0625 49.6875L28.125 46.6875L37.7812 54.375C36.2812 54.8438 34.875 55.2188 33.375 55.5ZM40.0312 53.25L30.9375 46.0312C32.4375 45.8438 33.9375 45.4687 35.25 44.8125L43.3125 51.1875C42.1875 51.9375 41.1562 52.5937 40.0312 53.25ZM45 49.5938L37.2188 43.4062C38.1562 42.6562 39 41.7188 39.75 40.7813L47.4375 46.875C46.6875 47.8125 45.8438 48.75 45 49.5938ZM48.6562 44.9063L40.875 38.7187C41.1562 38.0625 41.3437 37.4062 41.5312 36.75C42.2812 36.6562 43.0312 36.5625 43.7812 36.375L50.25 41.5312C49.875 42.75 49.3125 43.875 48.6562 44.9063ZM46.4062 35.5313C48.2812 34.7813 50.0625 33.75 51.6562 32.4375V33.8437C51.6562 35.7187 51.4688 37.5 51 39.1875L46.4062 35.5313Z" fill="#FFCF26"/>
<path d="M39.4687 32.1562C31.125 32.1562 24.2812 25.4062 24.2812 16.9688C24.2812 8.53125 31.125 1.875 39.4687 1.875C47.8125 1.875 54.6562 8.625 54.6562 17.0625C54.6562 25.5 47.8125 32.1562 39.4687 32.1562ZM39.4687 4.21875C32.3437 4.21875 26.625 9.9375 26.625 17.0625C26.625 24.1875 32.3437 29.9062 39.4687 29.9062C46.5937 29.9062 52.3125 24.1875 52.3125 17.0625C52.3125 9.9375 46.5 4.21875 39.4687 4.21875Z" fill="#4B5256"/>
</g>
<defs>
<clipPath id="clip0_612_358">
<rect width="60" height="60" fill="white"/>
</clipPath>
</defs>
</svg>
