<svg width="60" height="60" viewBox="0 0 60 60" fill="none" xmlns="http://www.w3.org/2000/svg">
<g clip-path="url(#clip0_612_160)">
<path d="M48.5622 12C48.1872 12 47.8122 12.1875 47.531 12.375C46.3122 13.5937 44.8122 15 43.4997 16.3125L43.406 16.4062C42.0935 17.625 40.5935 19.0312 39.3747 20.25L38.8122 20.8125L35.4372 17.3437C35.0622 16.9687 34.6872 16.875 34.3122 16.875C33.7497 16.9687 33.281 17.25 33.0935 17.8125C32.906 18.375 32.9997 18.8437 33.4685 19.3125L37.8747 23.7187C38.0622 23.9062 38.2497 24 38.4372 24.0938C38.6247 24.1875 38.8122 24.1875 38.906 24.1875C39.281 24.1875 39.656 24 39.9372 23.7187C41.3435 22.3125 42.9372 20.8125 44.7185 19.0312C46.2185 17.5312 47.9997 15.8437 49.406 14.4375L49.4997 14.3437C49.8747 13.875 49.9685 13.2187 49.5935 12.6562C49.4997 12.1875 49.031 12 48.5622 12Z" fill="#4B5256"/>
<path d="M56.9065 6.375C55.594 6 49.594 3.75 44.2502 1.78125C42.469 1.125 40.4065 1.125 38.6252 1.78125C33.469 3.75 27.3752 6 26.0627 6.375C24.6565 6.75 23.8127 8.0625 23.9065 9.46875C23.9065 9.84375 24.0002 10.2188 24.0002 10.4062C25.219 22.125 30.844 31.5938 40.4065 37.7812C40.5002 37.7812 40.5002 37.875 40.594 37.875L41.5315 38.4375L42.6565 37.7812C52.1252 31.5938 57.844 22.125 59.0627 10.4062C59.0627 10.2188 59.1565 9.84375 59.1565 9.46875C59.1565 8.0625 58.3127 6.75 56.9065 6.375ZM56.6252 10.125C55.5002 21 50.2502 29.8125 41.5315 35.7188C32.8127 29.9062 27.5627 21.0938 26.4377 10.125C26.4377 9.9375 26.4377 9.65625 26.344 9.28125C26.344 9 26.5315 8.71875 26.8127 8.625C28.1252 8.25 34.3127 6 39.5627 4.03125C40.219 3.75 40.8752 3.65625 41.5315 3.65625C42.1877 3.65625 42.844 3.75 43.5002 4.03125C48.7502 6 54.844 8.25 56.2502 8.625C56.5315 8.71875 56.719 9 56.719 9.375C56.719 9.65625 56.6252 9.9375 56.6252 10.125Z" fill="#FFCF26"/>
<path d="M55.9688 26.3438V46.7813H3.28125V26.3438C3.28125 22.7812 6.1875 19.7812 9.84375 19.7812H24.1875C23.9062 19.0312 23.7188 18.1875 23.4375 17.4375H9.84375C4.96875 17.4375 0.9375 21.375 0.9375 26.3438V49.7812C0.9375 54.6562 4.875 58.6875 9.84375 58.6875H49.4062C54.2812 58.6875 58.3125 54.75 58.3125 49.7812V26.3438C58.3125 25.125 58.0312 24 57.6562 22.875C57.0938 24.0937 56.5312 25.2188 55.9688 26.3438ZM55.9688 49.7812C55.9688 53.3438 53.0625 56.3438 49.4062 56.3438H9.84375C6.28125 56.3438 3.28125 53.4375 3.28125 49.7812V49.0312H55.875V49.7812H55.9688Z" fill="#4B5256"/>
<path d="M7.78125 29.4375V34.6875C7.78125 37.7812 10.3125 40.3125 13.4062 40.3125H20.5312C23.625 40.3125 26.1562 37.7812 26.1562 34.6875V29.4375C26.1562 26.3438 23.625 23.8125 20.5312 23.8125H13.4062C10.3125 23.9062 7.78125 26.4375 7.78125 29.4375ZM18.0937 35.0625H18.4688C19.125 35.0625 19.6875 34.5 19.6875 33.8437V30.5625C19.6875 29.9062 19.125 29.3437 18.4688 29.3437H18.0937V26.25H20.5312C22.3125 26.25 23.8125 27.75 23.8125 29.5313V34.6875C23.8125 36.4688 22.3125 37.9688 20.5312 37.9688H18.0937V35.0625ZM15.75 29.25H15.375C14.7187 29.25 14.1562 29.8125 14.1562 30.4688V33.75C14.1562 34.4062 14.7187 34.9688 15.375 34.9688H15.75V37.9688H13.3125C11.5312 37.9688 10.0312 36.4688 10.0312 34.6875V29.4375C10.0312 27.6562 11.5312 26.1562 13.3125 26.1562H15.75V29.25Z" fill="#FFCF26"/>
</g>
<defs>
<clipPath id="clip0_612_160">
<rect width="60" height="60" fill="white"/>
</clipPath>
</defs>
</svg>
