<svg width="60" height="60" viewBox="0 0 60 60" fill="none" xmlns="http://www.w3.org/2000/svg">
<g clip-path="url(#clip0_612_169)">
<path d="M57.4688 45.9375C56.25 45.0938 55.125 44.1562 54.0938 43.125C52.7813 41.8125 51.75 40.3125 50.8125 38.7188C50.25 39.2813 49.5938 39.75 48.8438 40.125C49.7812 41.8125 50.9062 43.3125 52.3125 44.8125C53.25 45.8438 54.375 46.7812 55.5 47.625L55.5938 47.7188V48.2812L55.4062 48.375C54.75 48.75 53.8125 49.0312 52.6875 49.3125C51.6563 49.5937 50.5313 49.6875 49.2188 49.6875C45.4688 49.6875 41.0625 48.4688 38.0625 46.5938C38.7188 45.4688 39.6562 43.9688 39.6562 43.875C40.125 43.2188 40.5 42.5625 40.875 41.8125C39.8438 41.8125 38.9062 41.9063 38.0625 41.9063L37.5 42.75C37.4062 42.8437 35.3438 46.4062 35.25 46.5C35.0625 46.7812 34.9688 47.0625 35.0625 47.3438C35.1563 47.625 35.3438 47.9062 35.5313 48.0938C36 48.375 36.4688 48.4688 36.9375 48.75C37.5 49.0312 37.9688 49.3125 38.5312 49.5938C39.6562 50.1562 40.7812 50.5312 42 50.9062C44.3438 51.6562 46.7813 52.0312 49.2188 52.0312C50.7188 52.0312 52.0312 51.8438 53.25 51.5625C54.5625 51.1875 56.25 50.625 57.2812 49.875C58.0312 49.5 58.4063 48.75 58.4063 48C58.6875 47.25 58.3125 46.5938 57.4688 45.9375ZM21.6562 42C19.9688 39.2813 18.9375 36.375 18.6562 33.4688V32.1562C18.6562 31.3125 18.6562 30.375 18.8438 29.3438C18.8438 29.25 18.9375 28.9688 19.0312 28.5938V28.4062C19.3125 27.4688 19.5 26.3438 19.6875 25.3125C21.2812 26.3438 22.875 27.375 24.6562 28.2188C26.1562 28.9688 27.8438 29.625 29.625 30.2812C33.75 31.6875 37.9688 32.625 41.3438 33.1875V33.5625C41.25 34.4062 41.1562 35.1563 40.875 36C41.9062 36 42.6563 35.9063 43.3125 35.8125C43.4063 35.1563 43.5938 34.4062 43.5938 33.75C43.6875 33.1875 43.6875 32.625 43.6875 32.1562V31.125L42.6563 30.9375C38.9062 30.2812 34.5 29.4375 30.2812 27.9375C28.5938 27.375 27 26.7188 25.5938 25.9688C23.4375 24.9375 21.375 23.7188 19.5938 22.3125C19.2188 22.0312 18.6562 21.9375 18.0938 22.125C17.625 22.4063 17.3438 22.875 17.4375 23.4375C17.4375 24.1875 16.9688 26.4375 16.6875 27.5625V27.75C16.5938 28.2188 16.4062 28.7812 16.4062 28.9688C16.2188 30 16.125 31.125 16.2188 32.1562C16.2188 32.625 16.2188 33.0938 16.3125 33.5625V33.8437C16.5938 36.9375 17.7188 40.0312 19.4063 43.0312C19.5 43.2188 20.8125 45.1875 21.75 46.5938H21.6562C18.6562 48.4688 14.1563 49.6875 10.5 49.6875C9.28125 49.6875 8.0625 49.5937 7.03125 49.3125C5.90625 49.0312 4.875 48.6562 4.21875 48.2812L3.75 48L4.21875 47.7188C5.4375 46.7812 6.5625 45.8438 7.59375 44.8125C10.0313 42.2812 11.8125 39.2812 12.9375 35.9062C13.2188 35.0625 13.4063 34.3125 13.5938 33.4688V33.375C13.5938 33.0937 13.6875 32.9062 13.6875 32.625L13.9688 29.8125V29.0625C14.1563 26.9062 14.25 24.8438 14.5313 22.875C14.625 22.2188 14.7188 21.5625 14.9063 20.8125L15 20.3438C15.1875 19.5 15.4688 18.6563 15.8438 17.9063C16.2188 16.9688 16.7813 16.125 17.5313 15.4688L17.7188 15.2812L17.8125 15.1875L17.9062 15C18.5625 14.3438 19.3125 13.7813 20.25 13.125C21.2812 12.4688 22.3125 12 23.4375 11.625C24.1875 11.3438 24.75 11.1563 25.4063 10.9688C25.5938 10.875 25.875 10.875 26.1562 10.7813C26.25 10.7813 26.3438 10.7812 26.4375 10.6875H26.5312C26.8125 10.5938 27.0938 10.5938 27.375 10.5C27.6563 10.5 27.9375 10.4063 28.2188 10.4063H31.4063C31.5938 10.4063 31.6875 10.4063 31.875 10.5H32.25C32.5313 10.5 32.8125 10.5938 33.0938 10.5938C33.2812 10.5938 33.4688 10.6875 33.6563 10.6875L34.5938 10.9688C34.7813 11.0625 34.9688 11.0625 35.25 11.1562C35.625 11.25 36 11.4375 36.375 11.5313C37.5 11.9063 38.5312 12.4688 39.4688 13.0312C40.5 13.6875 41.25 14.3438 42 15.0938L42.1875 15.2812C42.8438 15.9375 43.4062 16.7812 43.875 17.8125C44.25 18.4688 44.5313 19.3125 44.7188 20.25L45 20.625C45.1875 21.4688 45.2813 22.125 45.375 22.7812C45.6563 24.75 45.8438 26.7188 45.9375 28.9688V29.8125C45.9375 30.6562 46.0312 31.5938 46.2188 32.5313C46.2188 32.8125 46.3125 33 46.4063 33.375C46.5 33.75 46.5938 34.2188 46.6875 34.5938C47.5312 33.8438 48 32.9063 48.1875 31.5938V31.2188C48.0938 30.4688 48.0938 29.8125 48.2813 29.25V28.7813C48.0938 26.4375 48 24.375 47.625 22.4062C47.5312 21.75 47.4375 21 47.25 20.1562V19.6875C46.9688 18.5625 46.6875 17.625 46.2188 16.7812C45.6562 15.5625 44.9063 14.4375 43.9688 13.5C43.875 13.4062 43.875 13.4062 43.875 13.3125C43.0312 12.4688 42.0938 11.7188 40.9688 10.9688C39.8438 10.3125 38.7188 9.75 37.5 9.28125C37.0312 9.09375 36.6562 9 36.1875 8.8125C35.9062 8.71875 35.7188 8.625 35.4375 8.625L35.25 8.53125C35.1562 8.53125 34.9688 8.4375 34.875 8.4375H34.4063C34.2188 8.34375 33.9375 8.34375 33.75 8.25C33.4688 8.15625 33.0938 8.15625 32.7188 8.0625H32.4375C32.25 8.0625 31.9688 7.96875 31.7813 7.96875C31.5 7.96875 31.2188 7.875 31.0312 7.875H28.0312C27.6562 7.875 27.375 7.96875 27 7.96875C26.625 7.96875 26.3438 8.0625 26.0625 8.15625C25.9688 8.15625 25.6875 8.25 25.5938 8.25C25.2188 8.34375 24.9375 8.34375 24.6562 8.4375C24 8.625 23.25 8.8125 22.4062 9.09375C21.0938 9.5625 19.875 10.125 18.75 10.875C17.625 11.5313 16.7813 12.2812 16.0313 13.0312L15.9375 13.125C15.75 13.2188 15.6563 13.4062 15.5625 13.5C14.625 14.4375 13.9688 15.4687 13.4063 16.6875C12.9375 17.5312 12.6563 18.5625 12.375 19.5938L12.2813 20.1562C12.0938 21 12 21.75 11.9063 22.4062C11.625 24.5625 11.4375 26.625 11.25 28.7813V29.5312C11.25 30.4688 11.1563 31.3125 11.0625 32.1562C11.0625 32.3438 10.9688 32.5312 10.9688 32.8125V32.9062L10.4063 35.1562C9.46875 38.1562 7.875 40.875 5.625 43.125C4.6875 44.1562 3.5625 45.0938 2.34375 45.9375C1.3125 46.6875 1.125 47.4375 1.125 48C1.125 48.8438 1.5 49.5 2.15625 49.875C3.28125 50.7188 4.96875 51.2812 6.28125 51.6562C7.5 51.9375 8.8125 52.125 10.3125 52.125C12.75 52.125 15.0938 51.75 17.4375 51C18.5625 50.625 19.6875 50.25 20.8125 49.6875L22.5 48.8437C23.0625 48.5625 23.625 48.5625 24.0938 48.1875C24.375 48 24.5625 47.7187 24.5625 47.4375C24.6563 47.1562 24.5625 46.7812 24.375 46.5C24.4688 46.3125 21.75 42.2812 21.6562 42Z" fill="#4B5256"/>
<path d="M35.8122 40.0313H37.3122C38.4372 40.0313 44.0622 40.0313 45.6559 39.5625C49.3122 38.4375 51.5622 36.0938 52.2184 32.4375C52.3122 32.0625 52.3122 31.6875 52.4059 31.4063V31.3125H53.4372C55.4059 31.3125 57.0934 29.625 57.0934 27.6563V17.7187C57.0934 15.75 55.4059 14.0625 53.4372 14.0625H49.2184C48.6559 14.0625 48.1872 14.5313 48.1872 15.0938C48.1872 15.375 48.2809 15.6563 48.4684 15.9375C48.6559 16.125 48.9372 16.3125 49.3122 16.3125H53.4372C54.3747 16.3125 54.9372 16.875 54.9372 17.8125V27.75C54.9372 28.6875 54.3747 29.25 53.4372 29.25H51.6559C51.2809 29.25 50.9997 29.25 50.7184 29.4375C50.0622 29.8125 50.0622 30.6563 50.2497 31.3125V31.5938C50.2497 31.6875 50.2497 31.875 50.1559 32.0625C49.7809 34.4063 48.5622 36.0938 46.4059 37.125C45.2809 37.6875 41.9997 38.0625 37.6872 38.0625H35.9059V37.875C35.8122 35.9063 34.2184 34.3125 32.2497 34.3125H29.4372C27.5622 34.3125 25.9684 35.8125 25.7809 37.5938C25.7809 38.1562 25.6872 38.625 25.7809 39.2813C25.8747 41.25 27.5622 42.75 29.5309 42.75H32.1559C33.9372 42.75 35.2497 41.9063 35.9059 40.2188L35.8122 40.0313ZM33.4684 39.375C33.3747 39.8438 32.9997 40.2188 32.4372 40.2188H29.0622C28.5934 40.2188 28.1247 39.8438 28.1247 39.375C28.0309 38.7188 28.0309 38.0625 28.1247 37.4063C28.1247 36.9375 28.5934 36.5625 29.1559 36.5625H32.2497C32.7184 36.5625 33.2809 36.75 33.3747 37.5C33.5622 38.0625 33.5622 38.7188 33.4684 39.375Z" fill="#FFCF26"/>
</g>
<defs>
<clipPath id="clip0_612_169">
<rect width="60" height="60" fill="white"/>
</clipPath>
</defs>
</svg>
