<svg width="60" height="60" viewBox="0 0 60 60" fill="none" xmlns="http://www.w3.org/2000/svg">
<g clip-path="url(#clip0_612_335)">
<path d="M31.1251 39.6563H31.2188C33.3751 39.375 35.1563 38.1562 35.7188 36.375C36.5626 34.0312 35.6251 31.6875 33.5626 30.4688C33.0001 30.0938 32.4376 29.9063 31.7813 29.625L31.6876 29.5313C31.4063 29.4375 31.2188 29.3438 31.0313 29.25L30.7501 29.0625C30.4688 28.875 30.0938 28.7813 29.7188 28.5938C29.5313 28.5 29.4376 28.5 29.2501 28.4062C28.6876 28.125 28.2188 27.9375 27.8438 27.6563C26.6251 27 26.2501 25.5 26.7188 24.0938C27.0938 23.0625 27.9376 22.5 29.1563 22.3125H29.7188C30.0001 22.3125 30.3751 22.3125 30.7501 22.4063C31.8751 22.6875 32.6251 23.25 33.0001 24.2813C33.0001 24.375 33.0938 24.5625 33.0938 24.6562C33.1876 25.125 33.6563 25.5 34.2188 25.5H34.5001C34.7813 25.4063 35.0626 25.2188 35.2501 25.0313C35.4376 24.8438 35.4376 24.5625 35.3438 24.2813C35.2501 24.0938 35.2501 23.9062 35.1563 23.7188C34.5001 22.0312 33.0938 20.9063 31.2188 20.5313H31.1251V18.75C31.1251 18.1875 30.6563 17.7188 30.0001 17.7188C29.3438 17.7188 28.8751 18.1875 28.8751 18.75V20.3438H28.7813C25.9688 20.7188 24.9376 22.5 24.5626 23.4375C23.7188 25.7813 24.4688 28.2188 26.6251 29.4375C27.3751 29.9063 28.1251 30.1875 28.8751 30.5625C28.9688 30.5625 28.9688 30.6563 29.0626 30.6563C29.2501 30.75 29.3438 30.75 29.5313 30.8438L29.9063 31.0312C30.1876 31.125 30.4688 31.3125 30.7501 31.4063C31.3126 31.5938 31.8751 31.875 32.3438 32.1563C33.5626 32.9063 34.0313 34.3125 33.5626 35.7188C33.1876 36.8438 32.2501 37.5 30.8438 37.5938H29.0626C27.5626 37.4062 26.4376 36.4688 26.0626 35.1563C25.9688 34.6875 25.5001 34.3125 24.9376 34.3125H24.6563C24.3751 34.4062 24.0938 34.5938 23.9063 34.7812C23.7188 34.9688 23.7188 35.25 23.8126 35.5313C24.3751 37.6875 26.1563 39.1875 28.5938 39.5625H28.6876V41.25C28.6876 41.8125 29.1563 42.2812 29.8126 42.2812C30.4688 42.2812 30.9376 41.8125 30.9376 41.25V39.6563H31.1251Z" fill="#4B5256"/>
<path d="M42.75 14.9062C39 11.4375 34.7812 9.65625 30.375 9.65625H29.625C25.2187 9.65625 21 11.4375 17.25 14.9062C12.6562 19.2187 9.46872 27.2812 13.5 34.6875C13.875 35.3438 14.25 36.0938 14.625 36.75L14.8125 37.125C15.375 38.25 15.9375 39.1875 16.5 40.2188C18 42.8438 18.9375 45.375 19.4062 48C19.5 48.5625 19.5937 49.2188 19.5937 49.7812C19.7812 51.8438 21 54.0938 22.9687 56.0625L23.0625 56.1563C25.0312 57.8438 27.4687 58.7812 30.0937 58.7812C32.7187 58.7812 35.1562 57.8438 37.125 56.1563L37.2187 56.0625C39.1875 54.0938 40.4062 51.8438 40.5937 49.7812C40.6875 49.125 40.6875 48.5625 40.875 48C41.3437 45.4688 42.2812 42.9375 43.7812 40.2188C44.3437 39.1875 44.9062 38.1562 45.4687 37.0312L45.6562 36.6562C46.0312 36 46.4062 35.25 46.7812 34.5938C50.5312 27.1875 47.4375 19.2187 42.75 14.9062ZM44.3437 33.4688C43.9687 34.125 43.5937 34.875 43.2187 35.5313L43.0312 35.9062L41.3437 39C39.6562 41.9062 38.625 44.7188 38.1562 47.5312C38.0625 48.1875 37.9687 48.9375 37.875 49.5938C37.7812 51.0938 36.75 52.7813 35.25 54.2813C33.9375 55.5938 31.9687 56.25 30 56.25C28.0312 56.25 26.1562 55.5 24.6562 54.2813C23.1562 52.7813 22.125 51 22.0312 49.5938C21.9375 48.9375 21.8437 48.1875 21.75 47.5312C21.2812 44.7188 20.25 41.9062 18.5625 39C18 38.0625 17.5312 37.0313 16.9687 36L16.7812 35.625C16.4062 34.9688 16.0312 34.2188 15.6562 33.5625C12.1875 27.2812 14.9062 20.4375 18.8437 16.7812C22.125 13.6875 25.6875 12.1875 29.5312 12.1875H30.2812C34.125 12.1875 37.6875 13.7812 40.9687 16.7812C45 20.3437 47.7187 27.1875 44.3437 33.4688Z" fill="#FFCF26"/>
<path d="M9.46875 39.4687C9.28125 39.4687 9.09375 39.4688 8.90625 39.5625C8.15625 39.9375 7.3125 40.4062 6.5625 40.9688C6.09375 41.3438 5.90625 41.625 5.90625 41.9062C5.90625 42.0938 5.90625 42.1875 6 42.375C6.28125 42.9375 6.9375 43.2188 7.40625 43.125C7.5 43.125 7.59375 43.0312 7.6875 43.0312C8.4375 42.6562 9.1875 42.1875 10.125 41.625C10.6875 41.25 10.7812 40.6875 10.5 40.0312C10.2188 39.6562 9.84375 39.4687 9.46875 39.4687ZM53.3438 40.875C52.6875 40.4062 51.9375 40.0312 51.1875 39.6562C51.0937 39.5625 50.8125 39.5625 50.7187 39.4687C49.875 39.4687 49.5938 39.9375 49.4062 40.3125C49.2188 40.7812 49.4062 41.3438 49.7812 41.625C50.625 42.1875 51.375 42.6562 52.125 43.0312C52.3125 43.125 52.5937 43.2187 52.7812 43.2187C53.25 43.2187 53.625 43.0312 53.8125 42.6562C54.1875 42 54 41.25 53.3438 40.875ZM44.3437 6.1875C44.3437 6.09375 44.3437 6.09375 44.3437 6.1875C44.3437 5.71875 44.1562 5.0625 43.5938 4.875C43.5 4.875 43.3125 4.78125 43.2187 4.78125C42.8437 4.78125 42.4687 4.96875 42.2812 5.25C41.8125 6 41.3438 6.84375 40.9688 7.5C40.5938 8.15625 40.7812 8.8125 41.3437 9.1875C41.5312 9.28125 41.7188 9.375 42 9.375C42.375 9.375 42.75 9.1875 43.0312 8.71875C43.5 8.0625 43.875 7.3125 44.3437 6.5625C44.25 6.46875 44.3437 6.28125 44.3437 6.1875ZM9.9375 15.8438C9.28125 15.4688 8.53125 15 7.78125 14.625C7.6875 14.5313 7.40625 14.5312 7.3125 14.4375C6.84375 14.4375 6.28125 14.625 6 15.2812C5.8125 15.75 6 16.3125 6.375 16.5938C7.03125 17.0625 7.78125 17.4375 8.71875 18C9.375 18.375 10.0312 18.1875 10.4062 17.5313C10.7812 16.875 10.5937 16.2188 9.9375 15.8438ZM51.1875 17.9062C51.9375 17.5312 52.7812 16.9688 53.4375 16.5938C53.8125 16.3125 54 16.0312 54 15.4688C54 14.8125 53.4375 14.3438 52.875 14.3438C52.6875 14.3438 52.5 14.3438 52.3125 14.4375C51.5625 14.8125 50.7188 15.2812 50.0625 15.75C49.4062 16.125 49.2188 16.7813 49.5938 17.4375C49.7812 17.8125 50.1562 18 50.625 18C50.8125 18.0938 51 18 51.1875 17.9062ZM18.75 9.1875C19.4062 8.8125 19.5 8.15625 19.2187 7.5C18.8437 6.84375 18.4688 6.09375 18 5.34375C17.7187 4.96875 17.4375 4.78125 16.9687 4.78125C16.5 4.78125 16.125 4.96875 15.9375 5.34375C15.75 5.71875 15.75 6.09375 15.9375 6.5625C16.3125 7.3125 16.7812 7.96875 17.25 8.8125C17.5312 9.1875 17.9062 9.46875 18.2812 9.46875C18.2812 9.375 18.4687 9.375 18.75 9.1875ZM30 6.1875C30.6562 6.1875 31.125 5.71875 31.2187 5.0625V2.34375C31.2187 1.6875 30.6562 1.3125 30 1.3125C29.3437 1.3125 28.875 1.78125 28.7812 2.34375V5.0625C28.875 5.71875 29.3437 6.1875 30 6.1875ZM5.8125 27.5625H3.65625C3 27.5625 2.53125 28.0312 2.4375 28.6875C2.4375 29.3438 2.90625 29.9062 3.5625 29.9062H6.28125C6.9375 29.9062 7.40625 29.3438 7.40625 28.6875C7.40625 28.0312 6.9375 27.5625 6.28125 27.5625H5.8125ZM55.875 27.5625H53.7187C53.0625 27.5625 52.5937 28.0312 52.5937 28.6875C52.5937 29.3438 53.0625 29.8125 53.7187 29.9062H56.4375C57.0938 29.9062 57.5625 29.4375 57.5625 28.7813C57.5625 28.125 57.0938 27.6562 56.4375 27.5625H55.875Z" fill="#4B5256"/>
</g>
<defs>
<clipPath id="clip0_612_335">
<rect width="60" height="60" fill="white"/>
</clipPath>
</defs>
</svg>
