<svg width="192" height="64" viewBox="0 0 192 64" fill="none" xmlns="http://www.w3.org/2000/svg">
<g id="monomo 1">
<g id="Vector">
<path d="M41.7955 16.3761H39.946C39.8367 15.8441 39.6453 15.3768 39.3718 14.9741C39.1034 14.5714 38.7752 14.2333 38.3875 13.9599C38.0046 13.6815 37.5796 13.4727 37.1122 13.3335C36.6449 13.1942 36.1577 13.1246 35.6506 13.1246C34.7259 13.1246 33.8882 13.3583 33.1375 13.8256C32.3917 14.293 31.7976 14.9815 31.3551 15.8913C30.9176 16.8011 30.6989 17.9173 30.6989 19.2397C30.6989 20.5621 30.9176 21.6783 31.3551 22.5881C31.7976 23.4979 32.3917 24.1864 33.1375 24.6538C33.8882 25.1211 34.7259 25.3548 35.6506 25.3548C36.1577 25.3548 36.6449 25.2852 37.1122 25.146C37.5796 25.0067 38.0046 24.8004 38.3875 24.527C38.7752 24.2486 39.1034 23.908 39.3718 23.5053C39.6453 23.0977 39.8367 22.6303 39.946 22.1033H41.7955C41.6563 22.8839 41.4027 23.5824 41.0348 24.1989C40.6669 24.8153 40.2095 25.3398 39.6627 25.7724C39.1158 26.1999 38.5018 26.5256 37.8207 26.7493C37.1446 26.973 36.4212 27.0849 35.6506 27.0849C34.348 27.0849 33.1897 26.7667 32.1754 26.1303C31.1612 25.494 30.3633 24.5891 29.7816 23.4158C29.2 22.2425 28.9091 20.8505 28.9091 19.2397C28.9091 17.6289 29.2 16.2369 29.7816 15.0636C30.3633 13.8903 31.1612 12.9854 32.1754 12.3491C33.1897 11.7127 34.348 11.3945 35.6506 11.3945C36.4212 11.3945 37.1446 11.5064 37.8207 11.7301C38.5018 11.9538 39.1158 12.282 39.6627 12.7145C40.2095 13.142 40.6669 13.6641 41.0348 14.2805C41.4027 14.892 41.6563 15.5906 41.7955 16.3761Z" fill="#FFCF26"/>
<path d="M44.784 26.8761V11.6033H46.6335V25.2354H53.7329V26.8761H44.784Z" fill="#FFCF26"/>
<path fill-rule="evenodd" clip-rule="evenodd" d="M68.8882 19.2397C68.8882 20.8505 68.5973 22.2425 68.0156 23.4158C67.434 24.5891 66.636 25.494 65.6218 26.1303C64.6076 26.7667 63.4492 27.0849 62.1467 27.0849C60.8441 27.0849 59.6857 26.7667 58.6715 26.1303C57.6573 25.494 56.8594 24.5891 56.2777 23.4158C55.696 22.2425 55.4052 20.8505 55.4052 19.2397C55.4052 17.6289 55.696 16.2369 56.2777 15.0636C56.8594 13.8903 57.6573 12.9854 58.6715 12.3491C59.6857 11.7127 60.8441 11.3945 62.1467 11.3945C63.4492 11.3945 64.6076 11.7127 65.6218 12.3491C66.636 12.9854 67.434 13.8903 68.0156 15.0636C68.5973 16.2369 68.8882 17.6289 68.8882 19.2397ZM67.0984 19.2397C67.0984 17.9173 66.8772 16.8011 66.4347 15.8913C65.9972 14.9815 65.4031 14.293 64.6524 13.8256C63.9066 13.3583 63.0714 13.1246 62.1467 13.1246C61.222 13.1246 60.3843 13.3583 59.6335 13.8256C58.8878 14.293 58.2937 14.9815 57.8512 15.8913C57.4137 16.8011 57.195 17.9173 57.195 19.2397C57.195 20.5621 57.4137 21.6783 57.8512 22.5881C58.2937 23.4979 58.8878 24.1864 59.6335 24.6538C60.3843 25.1211 61.222 25.3548 62.1467 25.3548C63.0714 25.3548 63.9066 25.1211 64.6524 24.6538C65.4031 24.1864 65.9972 23.4979 66.4347 22.5881C66.8772 21.6783 67.0984 20.5621 67.0984 19.2397Z" fill="#FFCF26"/>
<path d="M80.3502 15.4215C80.2607 14.6658 79.8978 14.0792 79.2614 13.6616C78.625 13.244 77.8445 13.0352 76.9198 13.0352C76.2436 13.0352 75.652 13.1445 75.1449 13.3633C74.6428 13.582 74.25 13.8828 73.9666 14.2656C73.6882 14.6484 73.549 15.0835 73.549 15.5707C73.549 15.9783 73.646 16.3288 73.8399 16.6222C74.0387 16.9105 74.2923 17.1516 74.6005 17.3455C74.9088 17.5344 75.2319 17.6911 75.57 17.8153C75.9081 17.9347 76.2188 18.0316 76.5022 18.1062L78.0533 18.5238C78.451 18.6282 78.8935 18.7724 79.3807 18.9563C79.8729 19.1403 80.3427 19.3913 80.7902 19.7095C81.2426 20.0227 81.6154 20.4254 81.9088 20.9176C82.2021 21.4098 82.3487 22.0139 82.3487 22.7298C82.3487 23.555 82.1325 24.3008 81.7 24.967C81.2724 25.6332 80.646 26.1626 79.8207 26.5554C79.0004 26.9482 78.0036 27.1445 76.8303 27.1445C75.7365 27.1445 74.7894 26.968 73.989 26.6151C73.1936 26.2621 72.5671 25.7699 72.1098 25.1385C71.6573 24.5071 71.4013 23.7738 71.3416 22.9386H73.2507C73.3004 23.5153 73.4943 23.9925 73.8324 24.3704C74.1754 24.7433 74.608 25.0217 75.13 25.2056C75.657 25.3846 76.2237 25.4741 76.8303 25.4741C77.5362 25.4741 78.1701 25.3597 78.7319 25.131C79.2937 24.8974 79.7387 24.5742 80.0668 24.1616C80.3949 23.744 80.559 23.2567 80.559 22.6999C80.559 22.1928 80.4173 21.7802 80.1339 21.462C79.8505 21.1438 79.4777 20.8853 79.0153 20.6864C78.5529 20.4876 78.0533 20.3136 77.5164 20.1644L75.6371 19.6275C74.4439 19.2844 73.4993 18.7947 72.8033 18.1584C72.1073 17.522 71.7593 16.6893 71.7593 15.6602C71.7593 14.805 71.9904 14.0593 72.4528 13.4229C72.9201 12.7816 73.5465 12.2844 74.3321 11.9315C75.1225 11.5735 76.005 11.3945 76.9794 11.3945C77.9638 11.3945 78.8388 11.571 79.6044 11.924C80.37 12.272 80.9766 12.7493 81.424 13.3558C81.8764 13.9624 82.1151 14.6509 82.1399 15.4215H80.3502Z" fill="#FFCF26"/>
<path d="M85.3895 26.8761V11.6033H94.6068V13.244H87.2389V18.4045H94.1295V20.0451H87.2389V25.2354H94.7261V26.8761H85.3895Z" fill="#FFCF26"/>
<path d="M41.7955 40.3761H39.946C39.8367 39.8441 39.6453 39.3768 39.3718 38.9741C39.1034 38.5714 38.7752 38.2333 38.3875 37.9599C38.0046 37.6815 37.5796 37.4727 37.1122 37.3335C36.6449 37.1942 36.1577 37.1246 35.6506 37.1246C34.7259 37.1246 33.8882 37.3583 33.1375 37.8256C32.3917 38.293 31.7976 38.9815 31.3551 39.8913C30.9176 40.8011 30.6989 41.9173 30.6989 43.2397C30.6989 44.5621 30.9176 45.6783 31.3551 46.5881C31.7976 47.4979 32.3917 48.1864 33.1375 48.6538C33.8882 49.1211 34.7259 49.3548 35.6506 49.3548C36.1577 49.3548 36.6449 49.2852 37.1122 49.146C37.5796 49.0067 38.0046 48.8004 38.3875 48.527C38.7752 48.2486 39.1034 47.908 39.3718 47.5053C39.6453 47.0977 39.8367 46.6303 39.946 46.1033H41.7955C41.6563 46.8839 41.4027 47.5824 41.0348 48.1989C40.6669 48.8153 40.2095 49.3398 39.6627 49.7724C39.1158 50.1999 38.5018 50.5256 37.8207 50.7493C37.1446 50.973 36.4212 51.0849 35.6506 51.0849C34.348 51.0849 33.1897 50.7667 32.1754 50.1303C31.1612 49.494 30.3633 48.5891 29.7816 47.4158C29.2 46.2425 28.9091 44.8505 28.9091 43.2397C28.9091 41.6289 29.2 40.2369 29.7816 39.0636C30.3633 37.8903 31.1612 36.9854 32.1754 36.3491C33.1897 35.7127 34.348 35.3945 35.6506 35.3945C36.4212 35.3945 37.1446 35.5064 37.8207 35.7301C38.5018 35.9538 39.1158 36.282 39.6627 36.7145C40.2095 37.142 40.6669 37.6641 41.0348 38.2805C41.4027 38.892 41.6563 39.5906 41.7955 40.3761Z" fill="#FFCF26"/>
<path fill-rule="evenodd" clip-rule="evenodd" d="M57.6704 43.2397C57.6704 44.8505 57.3796 46.2425 56.7979 47.4158C56.2162 48.5891 55.4183 49.494 54.4041 50.1303C53.3899 50.7667 52.2315 51.0849 50.9289 51.0849C49.6264 51.0849 48.468 50.7667 47.4538 50.1303C46.4396 49.494 45.6416 48.5891 45.0599 47.4158C44.4783 46.2425 44.1874 44.8505 44.1874 43.2397C44.1874 41.6289 44.4783 40.2369 45.0599 39.0636C45.6416 37.8903 46.4396 36.9854 47.4538 36.3491C48.468 35.7127 49.6264 35.3945 50.9289 35.3945C52.2315 35.3945 53.3899 35.7127 54.4041 36.3491C55.4183 36.9854 56.2162 37.8903 56.7979 39.0636C57.3796 40.2369 57.6704 41.6289 57.6704 43.2397ZM55.8806 43.2397C55.8806 41.9173 55.6594 40.8011 55.2169 39.8913C54.7794 38.9815 54.1853 38.293 53.4346 37.8256C52.6889 37.3583 51.8536 37.1246 50.9289 37.1246C50.0042 37.1246 49.1665 37.3583 48.4158 37.8256C47.67 38.293 47.0759 38.9815 46.6335 39.8913C46.196 40.8011 45.9772 41.9173 45.9772 43.2397C45.9772 44.5621 46.196 45.6783 46.6335 46.5881C47.0759 47.4979 47.67 48.1864 48.4158 48.6538C49.1665 49.1211 50.0042 49.3548 50.9289 49.3548C51.8536 49.3548 52.6889 49.1211 53.4346 48.6538C54.1853 48.1864 54.7794 47.4979 55.2169 46.5881C55.6594 45.6783 55.8806 44.5621 55.8806 43.2397Z" fill="#FFCF26"/>
<path d="M72.8909 35.6033V50.8761H71.1011L62.7787 38.8846H62.6296V50.8761H60.7801V35.6033H62.5699L70.9222 47.6246H71.0713V35.6033H72.8909Z" fill="#FFCF26"/>
<path d="M88.7024 35.6033V50.8761H86.9127L78.5902 38.8846H78.4411V50.8761H76.5916V35.6033H78.3814L86.7337 47.6246H86.8828V35.6033H88.7024Z" fill="#FFCF26"/>
<path d="M92.4032 50.8761V35.6033H101.62V37.244H94.2526V42.4045H101.143V44.0451H94.2526V49.2354H101.74V50.8761H92.4032Z" fill="#FFCF26"/>
<path d="M117.244 40.3761H115.394C115.285 39.8441 115.094 39.3768 114.82 38.9741C114.552 38.5714 114.223 38.2333 113.836 37.9599C113.453 37.6815 113.028 37.4727 112.56 37.3335C112.093 37.1942 111.606 37.1246 111.099 37.1246C110.174 37.1246 109.336 37.3583 108.586 37.8256C107.84 38.293 107.246 38.9815 106.803 39.8913C106.366 40.8011 106.147 41.9173 106.147 43.2397C106.147 44.5621 106.366 45.6783 106.803 46.5881C107.246 47.4979 107.84 48.1864 108.586 48.6538C109.336 49.1211 110.174 49.3548 111.099 49.3548C111.606 49.3548 112.093 49.2852 112.56 49.146C113.028 49.0067 113.453 48.8004 113.836 48.527C114.223 48.2486 114.552 47.908 114.82 47.5053C115.094 47.0977 115.285 46.6303 115.394 46.1033H117.244C117.105 46.8839 116.851 47.5824 116.483 48.1989C116.115 48.8153 115.658 49.3398 115.111 49.7724C114.564 50.1999 113.95 50.5256 113.269 50.7493C112.593 50.973 111.869 51.0849 111.099 51.0849C109.796 51.0849 108.638 50.7667 107.624 50.1303C106.609 49.494 105.812 48.5891 105.23 47.4158C104.648 46.2425 104.357 44.8505 104.357 43.2397C104.357 41.6289 104.648 40.2369 105.23 39.0636C105.812 37.8903 106.609 36.9854 107.624 36.3491C108.638 35.7127 109.796 35.3945 111.099 35.3945C111.869 35.3945 112.593 35.5064 113.269 35.7301C113.95 35.9538 114.564 36.282 115.111 36.7145C115.658 37.142 116.115 37.6641 116.483 38.2805C116.851 38.892 117.105 39.5906 117.244 40.3761Z" fill="#FFCF26"/>
<path d="M119.397 37.244V35.6033H130.852V37.244H126.049V50.8761H124.2V37.244H119.397Z" fill="#FFCF26"/>
<path d="M135.555 35.6033V50.8761H133.706V35.6033H135.555Z" fill="#FFCF26"/>
<path fill-rule="evenodd" clip-rule="evenodd" d="M152.15 43.2397C152.15 44.8505 151.859 46.2425 151.277 47.4158C150.696 48.5891 149.898 49.494 148.884 50.1303C147.869 50.7667 146.711 51.0849 145.408 51.0849C144.106 51.0849 142.947 50.7667 141.933 50.1303C140.919 49.494 140.121 48.5891 139.539 47.4158C138.958 46.2425 138.667 44.8505 138.667 43.2397C138.667 41.6289 138.958 40.2369 139.539 39.0636C140.121 37.8903 140.919 36.9854 141.933 36.3491C142.947 35.7127 144.106 35.3945 145.408 35.3945C146.711 35.3945 147.869 35.7127 148.884 36.3491C149.898 36.9854 150.696 37.8903 151.277 39.0636C151.859 40.2369 152.15 41.6289 152.15 43.2397ZM150.36 43.2397C150.36 41.9173 150.139 40.8011 149.696 39.8913C149.259 38.9815 148.665 38.293 147.914 37.8256C147.168 37.3583 146.333 37.1246 145.408 37.1246C144.484 37.1246 143.646 37.3583 142.895 37.8256C142.15 38.293 141.555 38.9815 141.113 39.8913C140.675 40.8011 140.457 41.9173 140.457 43.2397C140.457 44.5621 140.675 45.6783 141.113 46.5881C141.555 47.4979 142.15 48.1864 142.895 48.6538C143.646 49.1211 144.484 49.3548 145.408 49.3548C146.333 49.3548 147.168 49.1211 147.914 48.6538C148.665 48.1864 149.259 47.4979 149.696 46.5881C150.139 45.6783 150.36 44.5621 150.36 43.2397Z" fill="#FFCF26"/>
<path d="M167.37 35.6033V50.8761H165.581L157.258 38.8846H157.109V50.8761H155.26V35.6033H157.049L165.402 47.6246H165.551V35.6033H167.37Z" fill="#FFCF26"/>
<path d="M179.423 39.4215C179.334 38.6658 178.971 38.0792 178.335 37.6616C177.698 37.244 176.918 37.0352 175.993 37.0352C175.317 37.0352 174.725 37.1445 174.218 37.3633C173.716 37.582 173.323 37.8828 173.04 38.2656C172.761 38.6484 172.622 39.0835 172.622 39.5707C172.622 39.9783 172.719 40.3288 172.913 40.6222C173.112 40.9105 173.366 41.1516 173.674 41.3455C173.982 41.5344 174.305 41.6911 174.643 41.8153C174.981 41.9347 175.292 42.0316 175.575 42.1062L177.127 42.5238C177.524 42.6282 177.967 42.7724 178.454 42.9563C178.946 43.1403 179.416 43.3913 179.863 43.7095C180.316 44.0227 180.689 44.4254 180.982 44.9176C181.275 45.4098 181.422 46.0139 181.422 46.7298C181.422 47.555 181.206 48.3008 180.773 48.967C180.346 49.6332 179.719 50.1626 178.894 50.5554C178.074 50.9482 177.077 51.1445 175.904 51.1445C174.81 51.1445 173.863 50.968 173.062 50.6151C172.267 50.2621 171.64 49.7699 171.183 49.1385C170.731 48.5071 170.475 47.7738 170.415 46.9386H172.324C172.374 47.5153 172.568 47.9925 172.906 48.3704C173.249 48.7433 173.681 49.0217 174.203 49.2056C174.73 49.3846 175.297 49.4741 175.904 49.4741C176.609 49.4741 177.243 49.3597 177.805 49.131C178.367 48.8974 178.812 48.5742 179.14 48.1616C179.468 47.744 179.632 47.2567 179.632 46.6999C179.632 46.1928 179.491 45.7802 179.207 45.462C178.924 45.1438 178.551 44.8853 178.089 44.6864C177.626 44.4876 177.127 44.3136 176.59 44.1644L174.71 43.6275C173.517 43.2844 172.573 42.7947 171.877 42.1584C171.181 41.522 170.833 40.6893 170.833 39.6602C170.833 38.805 171.064 38.0593 171.526 37.4229C171.993 36.7816 172.62 36.2844 173.405 35.9315C174.196 35.5735 175.078 35.3945 176.053 35.3945C177.037 35.3945 177.912 35.571 178.678 35.924C179.443 36.272 180.05 36.7493 180.497 37.3558C180.95 37.9624 181.188 38.6509 181.213 39.4215H179.423Z" fill="#FFCF26"/>
<path fill-rule="evenodd" clip-rule="evenodd" d="M11.3974 13.775C10.6656 12.9477 9.40161 12.8703 8.57429 13.6022C7.74697 14.3341 7.66959 15.598 8.40144 16.4253L15.3014 24.2253L15.3825 24.3059C15.3661 24.3526 15.3337 24.4216 15.2702 24.5084L9.58965 30.6787C7.85447 32.2896 8.20412 34.7076 9.4377 36.2496L9.50462 36.3289L15.1046 42.6289L15.1824 42.7061C15.1653 42.7547 15.131 42.8274 15.0622 42.9192L9.50462 49.1715C8.77078 49.997 8.84514 51.2612 9.67071 51.995C10.4963 52.7288 11.7604 52.6545 12.4943 51.8289L18.0943 45.5289L18.1612 45.4496C19.3912 43.912 19.7424 41.5034 18.0241 39.8925L12.5367 33.7192C12.4685 33.6282 12.4342 33.556 12.4169 33.5074L12.4708 33.4548L18.2708 27.1548L18.3612 27.0496C19.5907 25.5126 19.9421 23.1053 18.2261 21.4944L11.3974 13.775ZM15.4824 24.4053C15.4781 24.4015 15.4731 24.3967 15.4678 24.3908L15.4824 24.4053ZM15.2824 42.8053C15.2782 42.8016 15.2733 42.7968 15.2681 42.7911L15.2824 42.8053ZM12.3164 33.6053L12.3285 33.5935C12.3242 33.5982 12.3201 33.6021 12.3164 33.6053Z" fill="#FFCF26"/>
</g>
</g>
</svg>
