<svg width="192" height="64" viewBox="0 0 192 64" fill="none" xmlns="http://www.w3.org/2000/svg">
<path fill-rule="evenodd" clip-rule="evenodd" d="M34.4014 32.1616C34.4014 30.0282 34.7817 28.0888 35.6056 26.2141C36.3662 24.3393 37.4436 22.7232 38.838 21.301C40.2324 19.8787 41.8169 18.7797 43.6549 17.9393C45.4929 17.1636 47.4577 16.7111 49.4859 16.7111C51.5774 16.7111 53.4788 17.0989 55.3169 17.9393C57.1549 18.7151 58.7394 19.8141 60.1338 21.2363C61.5281 22.6585 62.6056 24.2747 63.3662 26.1494C64.1267 28.0242 64.5704 30.0282 64.5704 32.0969C64.5704 34.1656 64.1901 36.1696 63.3662 38.0444C62.6056 39.9191 61.5281 41.5353 60.1338 42.9575C58.7394 44.3797 57.1549 45.4787 55.3169 46.2545C53.4788 47.0303 51.514 47.4828 49.4859 47.4828C47.3943 47.4828 45.4929 47.0949 43.6549 46.2545C41.8169 45.4787 40.2324 44.3797 38.838 42.9575C37.4436 41.5353 36.3662 39.9191 35.6056 38.0444C34.845 36.2343 34.4014 34.2303 34.4014 32.1616ZM43.4647 32.1616C43.4647 33.002 43.5915 33.7777 43.9084 34.5535C44.2253 35.3292 44.669 35.9757 45.176 36.4929C45.7464 37.0747 46.3802 37.4626 47.0774 37.7858C47.838 38.109 48.5986 38.2383 49.4225 38.2383C50.2464 38.2383 51.007 38.109 51.7676 37.7858C52.5281 37.4626 53.1619 37.01 53.669 36.4929C54.2394 35.9111 54.6197 35.2646 54.9366 34.5535C55.2535 33.7777 55.3802 33.002 55.3802 32.1616C55.3802 31.3212 55.2535 30.5454 54.9366 29.7696C54.6197 28.9939 54.176 28.3474 53.669 27.8303C53.0985 27.2484 52.4647 26.8606 51.7676 26.5373C51.007 26.2141 50.2464 26.0848 49.4225 26.0848C48.5986 26.0848 47.7746 26.2141 47.0774 26.5373C46.3169 26.8606 45.6831 27.3131 45.176 27.8303C44.6056 28.4121 44.2253 29.0585 43.9084 29.7696C43.6549 30.4808 43.4647 31.2565 43.4647 32.1616Z" fill="#FFCF26"/>
<path d="M107.035 47.1596H185.373L169.021 31.1919L185.373 16.7758H107.035V47.1596Z" fill="#FFCF26"/>
<path d="M15.5142 17.4222H6.19727V46.7717H15.5142V37.7212L21.6621 46.7717H32.7536L22.1057 30.8687L32.1832 17.4222H20.9649L15.5142 24.2101V17.4222Z" fill="#FFCF26"/>
<path fill-rule="evenodd" clip-rule="evenodd" d="M71.859 26.2141C71.0351 28.0889 70.6548 30.0283 70.6548 32.1616C70.6548 34.2303 71.0351 36.2343 71.859 38.1091C72.6196 39.9838 73.697 41.6 75.0914 43.0222C76.4858 44.4444 78.0703 45.5434 79.9083 46.3192C81.7463 47.1596 83.6477 47.5475 85.7393 47.5475C87.7675 47.5475 89.7323 47.0949 91.5703 46.3192C93.4083 45.5434 94.9928 44.4444 96.3872 43.0222C97.7815 41.6 98.859 39.9838 99.6196 38.1091C100.444 36.2343 100.824 34.2303 100.824 32.1616C100.824 30.0929 100.38 28.0889 99.6196 26.2141C98.859 24.3394 97.7815 22.7232 96.3872 21.301C94.9928 19.8788 93.4083 18.7798 91.5703 18.004C89.7323 17.1636 87.8308 16.7758 85.7393 16.7758C83.7111 16.7758 81.7463 17.2283 79.9083 18.004C78.0703 18.7798 76.4858 19.8788 75.0914 21.301C73.697 22.7232 72.6196 24.3394 71.859 26.2141ZM80.0984 34.5535C79.7815 33.7778 79.6548 33.002 79.6548 32.1616C79.6548 31.2566 79.8449 30.4808 80.0984 29.7697C80.4153 29.0586 80.7956 28.4121 81.3661 27.8303C81.8731 27.3131 82.5069 26.8606 83.2675 26.5374C83.9646 26.2141 84.7886 26.0848 85.6125 26.0848C86.4365 26.0848 87.197 26.2141 87.9576 26.5374C88.6548 26.8606 89.2886 27.2485 89.859 27.8303C90.3661 28.3475 90.8097 28.9939 91.1266 29.7697C91.4435 30.5455 91.5703 31.3212 91.5703 32.1616C91.5703 33.002 91.4435 33.7778 91.1266 34.5535C90.8097 35.2646 90.4294 35.9111 89.859 36.4929C89.352 37.0101 88.7182 37.4626 87.9576 37.7859C87.197 38.1091 86.4365 38.2384 85.6125 38.2384C84.7886 38.2384 84.028 38.1091 83.2675 37.7859C82.5703 37.4626 81.9365 37.0747 81.3661 36.4929C80.859 35.9758 80.4153 35.3293 80.0984 34.5535Z" fill="#FFCF26"/>
</svg>
