<svg width="35" height="36" viewBox="0 0 35 36" fill="none" xmlns="http://www.w3.org/2000/svg">
<g id="Group 9">
<path id="Vector" d="M17.1367 35.6671C40.1837 35.6671 40.3888 0 17.3962 0C-5.65382 0 -5.85597 35.6671 17.1367 35.6671Z" fill="#4B5256"/>
<path id="Vector_2" fill-rule="evenodd" clip-rule="evenodd" d="M16.8364 5.08984C18.0492 5.08984 19.0639 6.38399 19.3475 8.13434C18.9644 8.00673 18.5641 7.91132 18.1307 7.84801C17.9567 6.69954 17.4428 5.86954 16.8364 5.86954C16.2289 5.86954 15.7181 6.69954 15.5411 7.84801C15.1116 7.91132 14.7074 8.00673 14.3242 8.13434C14.6008 6.38399 15.6225 5.08984 16.8364 5.08984ZM16.8364 28.8069H10.8506C9.87913 28.811 9.21941 28.187 9.18321 27.141C9.06655 20.5445 8.75378 8.70209 16.8364 8.70209C24.9179 8.70209 24.6092 20.5445 24.4885 27.141C24.4533 28.187 23.7936 28.811 22.8211 28.8069H16.8364ZM12.4195 19.9276C11.976 19.9276 11.6139 20.2893 11.6139 20.7284V21.6367H22.0588V20.7284C22.0588 20.2893 21.6968 19.9276 21.2563 19.9276H12.4195ZM22.0588 22.5863H11.6139V25.9966C11.6139 26.4397 11.976 26.7974 12.4195 26.7974H21.2563C21.6968 26.7974 22.0588 26.4397 22.0588 25.9966V22.5863ZM15.4274 11.5487C15.183 11.5487 14.9769 11.7506 14.9769 11.9988V13.306C14.9769 13.5511 15.183 13.7562 15.4274 13.7562H18.2413C18.4897 13.7562 18.6948 13.5511 18.6948 13.306V11.9988C18.6948 11.7506 18.4897 11.5487 18.2413 11.5487H15.4274ZM25.4007 27.556C30.3144 25.1133 29.1146 16.2982 23.683 12.3142C24.0269 13.0548 24.3045 13.8556 24.5308 14.6996C27.2662 17.8537 28.0758 23.2735 25.464 25.4961C25.454 25.9644 25.4469 26.4497 25.4359 26.9139C25.4318 27.138 25.4318 27.3329 25.4007 27.556ZM8.27208 27.556C8.24291 27.3399 8.23988 27.134 8.23586 26.9139C8.2258 26.4497 8.21474 25.9644 8.21173 25.4961C5.59698 23.2735 6.40956 17.8537 9.14096 14.6996C9.36825 13.8556 9.64481 13.0548 9.98875 12.3142C4.56416 16.2982 3.35836 25.1133 8.27208 27.556Z" fill="white"/>
</g>
</svg>
