<svg width="119" height="31" viewBox="0 0 119 31" fill="none" xmlns="http://www.w3.org/2000/svg">
<path d="M36.9313 7.69097C36.9313 10.707 35.5299 13.0443 32.8525 14.4453C36.3791 15.5935 38.2062 18.1855 38.2062 22.052C38.2062 27.8736 34.382 30.8481 26.6915 30.8481H0.304688V0H26.6899C34.1485 0 36.9313 1.78432 36.9313 7.69097ZM12.2446 11.6001H20.2753C23.1221 11.6001 24.4392 11.3869 24.4392 9.38947C24.4392 7.30808 23.0794 7.22266 20.2753 7.22266H12.2446V11.6001ZM20.7005 23.156C23.8458 23.156 25.3739 22.944 25.3739 20.6494C25.3739 18.3549 23.9301 18.059 20.7005 18.059H12.2446V23.156H20.7005Z" fill="#4B5256"/>
<path d="M32.9024 14.0217C39.6571 12.4071 43.397 12.4071 43.397 10.0286C43.397 8.45521 41.6985 7.60596 38.2999 7.60596C33.837 7.60596 31.6676 8.62453 31.6676 11.5151V11.599H18.793C19.1332 3.69644 25.3399 0.00195312 37.3637 0.00195312C49.7277 0.00195312 55.9303 3.35778 55.9303 9.85781C55.9303 15.0845 52.7876 17.5484 45.7758 19.0779C38.5104 20.6926 33.201 20.9046 30.7356 23.1992H55.2946V30.8485H17.7344C18.2011 20.9484 22.6209 16.4444 32.9024 14.0217Z" fill="#FFCF26"/>
<path d="M113.386 2.31083H119.001V0.385482H105.683V2.31083H111.296V14.7148C111.149 14.7065 111.002 14.6922 110.851 14.6922H105.081C104.842 14.0946 104.758 13.0412 104.663 11.5347C104.502 8.91853 103.954 8.3119 102.351 8.00802C104.014 7.48002 104.887 6.30383 104.887 4.39857C104.887 1.80279 103.082 0.385482 99.6567 0.385482H91.9113V14.6922H85.8765C88.4912 13.496 89.9807 11.0189 89.9807 7.7439C89.9807 3.06144 86.9405 0 81.9337 0C76.9058 0 73.8659 3.06144 73.8659 7.7439C73.8659 11.0189 75.3566 13.496 77.9618 14.6922H70.2459C71.8019 13.9132 72.6232 12.5975 72.6232 10.8865C72.6232 8.41319 71.1432 7.48009 68.042 6.8935L64.8193 6.2642C63.0338 5.91988 62.2031 5.4535 62.2031 4.25728C62.2031 2.77722 63.5017 1.92682 66.0552 1.92682C68.6097 1.92682 69.8661 2.77716 70.0085 4.66277H72.0767C72.0767 1.68261 69.9885 0 66.2181 0C62.1433 0 60.014 1.68266 60.014 4.44021C60.014 6.66937 61.3927 7.82548 64.2712 8.33194L67.8992 8.98014C69.6431 9.28402 70.4353 9.85322 70.4353 11.068C70.4353 12.6093 69.0153 13.5628 66.359 13.5628C63.3192 13.5628 61.8179 12.4479 61.7367 10.1359H59.5287C59.5287 12.7147 60.7672 14.3788 63.1498 15.0905C59.9138 16.1439 57.5645 19.1852 57.5645 22.7705C57.5645 27.2254 61.1871 30.8481 65.642 30.8481H110.851C115.305 30.8481 118.928 27.2254 118.928 22.7705C118.928 19.1988 116.598 16.1665 113.379 15.1026H113.386V2.31083ZM76.0339 7.7439C76.0339 4.13596 78.1833 1.96683 81.9125 1.96683C85.6645 1.96683 87.8124 4.13596 87.8124 7.7439C87.8124 11.3333 85.6845 13.5213 81.9337 13.5213C78.1833 13.5213 76.0339 11.3522 76.0339 7.7439ZM94.0006 2.10938H98.6419C101.481 2.10938 102.799 2.57459 102.799 4.56149C102.799 6.46675 101.521 7.05487 98.8244 7.05487H94.0006V2.10938ZM94.0006 8.77722H99.4938C101.886 8.77722 102.351 9.44653 102.534 12.3254C102.611 13.4842 102.675 14.216 102.778 14.6922H94.0006V8.77722ZM117.078 22.7705C117.078 26.2042 114.285 28.9961 110.851 28.9961H65.642C62.2087 28.9961 59.4164 26.2042 59.4164 22.7705C59.4164 19.336 62.2087 16.5441 65.642 16.5441H110.851C114.285 16.5441 117.078 19.336 117.078 22.7705Z" fill="#4B5256"/>
<path d="M68.0527 19.1089C66.0352 19.1089 64.3926 20.7514 64.3926 22.7701C64.3926 24.7887 66.0352 26.4302 68.0527 26.4302C70.0698 26.4302 71.7124 24.7887 71.7124 22.7701C71.7124 20.7514 70.0698 19.1089 68.0527 19.1089ZM68.0527 24.5798C67.0552 24.5798 66.243 23.7675 66.243 22.7701C66.243 21.7715 67.0552 20.9597 68.0527 20.9597C69.0497 20.9597 69.8619 21.7715 69.8619 22.7701C69.8619 23.7675 69.0497 24.5798 68.0527 24.5798Z" fill="#4B5256"/>
<path d="M88.2472 19.1089C86.2296 19.1089 84.5859 20.7514 84.5859 22.7701C84.5859 24.7887 86.2296 26.4302 88.2472 26.4302C90.2643 26.4302 91.9073 24.7887 91.9073 22.7701C91.9073 20.7514 90.2643 19.1089 88.2472 19.1089ZM88.2472 24.5798C87.2497 24.5798 86.4379 23.7675 86.4379 22.7701C86.4379 21.7715 87.2497 20.9597 88.2472 20.9597C89.2446 20.9597 90.0564 21.7715 90.0564 22.7701C90.0564 23.7675 89.2446 24.5798 88.2472 24.5798Z" fill="#4B5256"/>
<path d="M104.781 22.7701C104.781 24.7876 106.423 26.4302 108.441 26.4302C110.46 26.4302 112.101 24.7876 112.101 22.7701C112.101 20.7529 110.46 19.1089 108.441 19.1089C106.423 19.1089 104.781 20.7529 104.781 22.7701ZM110.251 22.7701C110.251 23.7675 109.439 24.5794 108.441 24.5794C107.443 24.5794 106.632 23.7675 106.632 22.7701C106.632 21.7727 107.443 20.9609 108.441 20.9609C109.439 20.9609 110.251 21.7727 110.251 22.7701Z" fill="#4B5256"/>
</svg>
