<svg width="979" height="889" viewBox="0 0 979 889" fill="none" xmlns="http://www.w3.org/2000/svg">
<g clip-path="url(#clip0_791_3005)">
<path d="M1480.13 2927.56C1450.77 2490.68 1253.58 2272.48 1044.82 2041.47C922.169 1905.75 795.356 1765.41 707.674 1577.17C660.428 1475.76 628.169 1369.19 609.045 1251.42C587.563 1119.09 583.107 976.206 595.429 814.611L596.581 814.691C545.321 1486.99 799.694 1768.47 1045.68 2040.69C1145.8 2151.49 1249.34 2266.07 1329.03 2404.85C1371.92 2479.52 1404.79 2555.22 1429.54 2636.23C1457.29 2727.09 1474.21 2822.35 1481.28 2927.48L1480.13 2927.56Z" fill="#4B5256"/>
<path d="M1480.13 2927.52C1477.7 2501.07 1287.63 2261.92 1086.4 2008.73C962.311 1852.61 834.002 1691.17 746.32 1478.65C698.992 1363.89 667.615 1244.99 650.4 1115.15C631.001 968.838 630.032 812.977 647.428 638.69L648.58 638.802C576.102 1364.83 835.985 1691.81 1087.3 2008.01C1189.07 2136.06 1285.19 2257.01 1358.38 2402.06C1397.69 2479.97 1426.61 2557.5 1446.83 2639.15C1469.42 2730.47 1480.68 2824.79 1481.28 2927.52H1480.13Z" fill="#4B5256"/>
<path d="M1481.28 2927.55L1480.13 2927.48C1504.88 2486.35 1315.44 2232 1114.88 1962.71C999.675 1808.03 880.533 1648.07 796.613 1445.07C751.296 1335.4 720.312 1223.62 701.916 1103.33C681.153 967.647 676.887 825.258 688.876 668.017L690.036 668.097C640.071 1323.29 881.92 1648.01 1115.8 1962.03C1316.5 2231.49 1506.05 2485.99 1481.28 2927.55Z" fill="#4B5256"/>
<path d="M1481.28 2927.59L1480.14 2927.46C1539.69 2430.75 1350.37 2159.05 1149.95 1871.41C1035.26 1706.79 916.673 1536.59 833.83 1313.75C789.041 1193.21 758.988 1069.31 741.973 934.958C723.001 785.276 720.826 620.381 735.486 444.841L736.626 444.933C674.629 1187.21 927.659 1550.36 1150.9 1870.74C1253.17 2017.52 1349.77 2156.16 1414.47 2321.86C1449.14 2410.67 1471.68 2499.58 1483.32 2593.66C1496.3 2698.59 1495.63 2807.82 1481.28 2927.59Z" fill="#4B5256"/>
<path d="M1481.25 2927.69L1480.15 2927.35C1626.1 2470.74 1429.07 2194.15 1200.92 1873.88C1085.49 1711.85 966.125 1544.29 879.747 1337.82C781.451 1102.9 743.868 855.028 764.823 580.063L765.974 580.135C719.059 1195.48 975.555 1555.53 1201.85 1873.21C1314.64 2031.53 1421.15 2181.06 1481.04 2347.89C1513.05 2437.09 1529.4 2524.34 1531.01 2614.66C1532.78 2714.99 1516.51 2817.37 1481.25 2927.69Z" fill="#4B5256"/>
<path d="M1481.23 2927.74L1480.17 2927.29C1674.3 2458.39 1474.06 2183.46 1242.21 1865.09C1016.47 1555.11 760.607 1203.77 794.17 589.958L795.322 590.03C761.782 1203.43 1017.51 1554.59 1243.14 1864.42C1358.72 2023.11 1467.87 2173.01 1522.55 2340.1C1583.36 2526.04 1570.24 2712.76 1481.23 2927.74Z" fill="#4B5256"/>
<path d="M1481.21 2927.79L1480.2 2927.24C1739.71 2447.9 1525.79 2160.94 1278.08 1828.66C1047.15 1518.88 785.422 1167.77 830.223 580.056L831.386 580.145C786.594 1167.42 1048.21 1518.35 1279.01 1827.96C1402.67 1993.84 1519.45 2150.51 1571.25 2323.56C1598.89 2415.86 1606.46 2506.49 1594.39 2600.6C1581.02 2704.79 1544 2811.81 1481.21 2927.79Z" fill="#4B5256"/>
<path d="M1481.28 2927.55L1480.13 2927.48C1505.69 2439.3 1319.49 2177.3 1122.38 1899.91C1016.41 1750.8 906.82 1596.61 826.868 1401.06C783.706 1295.51 752.966 1187.74 732.899 1071.64C710.276 940.781 701.775 803.21 706.881 651.056L708.033 651.096C686.714 1284.9 908.668 1597.21 1123.31 1899.24C1320.55 2176.81 1506.87 2438.97 1481.28 2927.55Z" fill="#4B5256"/>
<path d="M1481.17 2927.87L1480.24 2927.17C1629.38 2726.26 1676.06 2543.06 1627.15 2350.61C1582.9 2176.48 1463.4 2008.46 1336.87 1830.56C1218.9 1664.69 1096.91 1493.16 1006.56 1286.07C903.227 1049.22 862.56 808.693 882.232 550.746L883.375 550.826C839.302 1128.96 1104.15 1501.34 1337.82 1829.9C1464.4 2007.88 1583.97 2176.01 1628.27 2350.32C1677.28 2543.13 1630.53 2726.65 1481.17 2927.87Z" fill="#4B5256"/>
<path d="M1481.11 2927.93L1480.32 2927.1C1666.35 2750.1 1733.61 2579.79 1692.01 2391.16C1654.16 2219.47 1533.4 2050.84 1393.56 1855.59C1275.67 1690.98 1142.05 1504.39 1046.15 1291.51C936.201 1047.44 892.187 805.147 911.586 550.743L912.738 550.834C869.221 1121.45 1148.29 1511.12 1394.5 1854.93C1669.45 2238.84 1886.62 2542.09 1481.11 2927.93Z" fill="#4B5256"/>
<path d="M1481.09 2927.95L1480.32 2927.08C1687.54 2739.99 1766.2 2563.2 1727.87 2370.75C1692.97 2195.53 1568.29 2025.65 1423.91 1828.96C1305.85 1668.11 1172.03 1485.8 1076.05 1277.52C966.035 1038.81 921.841 801.083 940.925 550.75L942.077 550.83C899.267 1112.27 1178.48 1492.65 1424.83 1828.27C1569.29 2025.08 1694.06 2195.04 1729 2370.52C1767.42 2563.42 1688.65 2740.55 1481.09 2927.95Z" fill="#4B5256"/>
<path d="M1481.23 2927.76L1480.18 2927.27C1683.1 2477.17 1494.58 2178.98 1276.31 1833.72C1161.18 1651.61 1042.13 1463.29 959.704 1229.44C865.531 962.22 838.622 682.665 877.429 374.803L878.572 374.943C791.617 1064.86 1049.64 1473.01 1277.29 1833.11C1386.24 2005.44 1489.15 2168.24 1538 2342.01C1592.32 2535.21 1574.28 2721.34 1481.23 2927.76Z" fill="#4B5256"/>
<path d="M1481.18 2927.85L1480.23 2927.2C1603.87 2748.5 1628.6 2572 1558.06 2371.72C1494.45 2191.18 1358.91 2007.71 1215.41 1813.46C1073.51 1621.39 926.784 1422.76 817.58 1192.36C692.839 929.144 642.103 671.319 662.474 404.16L663.626 404.24C617.985 1002.83 935.871 1433.15 1216.33 1812.78C1359.89 2007.09 1495.49 2190.64 1559.15 2371.33C1593.07 2467.67 1604.72 2556.91 1594.73 2644.13C1583.67 2740.6 1546.52 2833.41 1481.18 2927.85Z" fill="#4B5256"/>
<path d="M1481.12 2927.9L1480.26 2927.14C1633.68 2756.99 1669.86 2593.33 1594.12 2412.12C1525.5 2247.95 1369.68 2081.74 1204.7 1905.76C1045.93 1736.4 865.984 1544.46 735.544 1324.09C586.108 1071.61 523.392 818.637 543.823 550.743L544.975 550.834C499.174 1151.52 874.446 1551.81 1205.54 1904.98C1290.07 1995.14 1369.93 2080.31 1437.7 2164C1513.76 2257.9 1563.81 2336.6 1595.19 2411.66C1671.12 2593.34 1634.88 2757.38 1481.12 2927.9Z" fill="#4B5256"/>
<path d="M1481.13 2927.9L1480.27 2927.14C1641.6 2749.02 1698.4 2571.9 1659.01 2369.69C1623.28 2186.29 1515.59 2003.99 1390.9 1792.9C1287.31 1617.53 1169.9 1418.76 1086.83 1197.79C991.78 944.929 954.985 698.643 974.324 444.834L975.476 444.926C932.099 1013.93 1176.37 1427.46 1391.89 1792.32C1453.19 1896.09 1511.1 1994.12 1558.41 2089.58C1611.47 2196.65 1643.79 2285.59 1660.13 2369.45C1699.62 2572.06 1642.74 2749.51 1481.13 2927.9Z" fill="#4B5256"/>
<path d="M1481.25 2927.7L1480.16 2927.34C1569.03 2658.64 1423.67 2385.9 1239.63 2040.59C1131.99 1838.62 1009.99 1609.71 923.01 1350.78C823.035 1053.13 785.492 763.44 808.235 465.162L809.378 465.242C758.299 1135.02 1025.75 1636.85 1240.65 2040.05C1329.49 2206.73 1413.4 2364.16 1462.08 2510.02C1515.99 2671.51 1522.09 2804.24 1481.25 2927.7Z" fill="#4B5256"/>
<path d="M1481.26 2927.65L1480.14 2927.4C1555.26 2598.71 1328.6 2331.92 1066.17 2023C904.769 1833.02 737.878 1636.57 613.269 1398.68C470.776 1126.7 412.591 849.329 435.345 550.739L436.5 550.828C385.489 1219.99 747.572 1646.21 1067.05 2022.26C1329.68 2331.41 1556.51 2598.4 1481.26 2927.65Z" fill="#4B5256"/>
<path d="M1481.25 2927.7L1480.16 2927.34C1520.73 2803.47 1512.43 2666.13 1454.05 2495.09C1401.34 2340.68 1312.12 2171.97 1217.67 1993.35C1103.79 1778.03 974.714 1533.95 882.616 1264.01C776.83 953.976 736.456 658.334 759.179 360.195L760.342 360.267C709.303 1029.58 991.737 1563.68 1218.69 1992.82C1313.15 2171.48 1402.39 2340.22 1455.15 2494.72C1513.62 2665.99 1521.91 2803.58 1481.25 2927.7Z" fill="#4B5256"/>
<path d="M1481.23 2927.76L1480.17 2927.27C1548.75 2774.18 1544.6 2608.81 1467.12 2406.84C1397.47 2225.25 1275.27 2032.04 1145.91 1827.5C1002.45 1600.67 854.107 1366.11 743.862 1102.87C617.869 802.031 567.134 518.111 588.725 234.899L589.877 234.988C541.477 869.667 863.113 1378.21 1146.87 1826.88C1276.28 2031.49 1398.51 2224.74 1468.2 2406.43C1505.41 2503.4 1525.29 2590.4 1529 2672.4C1533.11 2763.27 1517.48 2846.8 1481.23 2927.76Z" fill="#4B5256"/>
<path d="M1475.62 2934.99C1423.84 2700.12 1391.69 2422.14 1357.66 2127.83C1285.5 1503.84 1203.71 796.605 907.195 170.855L908.236 170.371C1040.54 449.563 1141.83 770.472 1217.88 1151.42C1284.49 1485.06 1322.27 1811.75 1358.81 2127.69C1392.83 2421.97 1424.97 2699.93 1476.76 2934.74L1475.62 2934.99Z" fill="#4B5256"/>
<path d="M1475.64 2935.05C1332.96 2514.91 1322.31 2158.78 1312.01 1814.39C1297.24 1320.65 1283.29 854.293 877.533 270.267L878.473 269.608C1284.44 853.917 1298.4 1320.43 1313.17 1814.35C1323.46 2158.66 1334.11 2514.71 1476.73 2934.68L1475.64 2935.05Z" fill="#4B5256"/>
<path d="M1475.7 2930.66C1402.88 2817.74 1345.53 2703.47 1300.38 2581.34C1260.08 2472.38 1230.49 2359.5 1209.84 2236.25C1171.47 2007.08 1170.76 1774.38 1170.08 1549.33C1168.87 1149.8 1167.63 736.654 962.688 304.176L963.719 303.681C1012.99 407.628 1051.83 512.444 1082.49 624.145C1109.77 723.538 1129.85 826.04 1143.93 937.509C1170.02 1144.39 1170.63 1350.25 1171.23 1549.33C1172.66 2018 1173.99 2460.67 1476.67 2930.04L1475.7 2930.66Z" fill="#4B5256"/>
<path d="M941.007 578.075C971.616 578.075 971.616 530.677 941.007 530.677C910.399 530.677 910.399 578.075 941.007 578.075Z" fill="#4B5256"/>
<path d="M854.005 579.205V577.519C854.005 546.943 806.557 546.943 806.557 577.519V579.205C806.557 609.781 854.005 609.781 854.005 579.205V577.519C854.005 546.943 806.557 546.943 806.557 577.519V579.205C806.557 609.781 854.005 609.781 854.005 579.205Z" fill="#4B5256"/>
<path d="M764.736 607.425C795.344 607.425 795.344 560.024 764.736 560.024C734.127 560.024 734.127 607.425 764.736 607.425Z" fill="#4B5256"/>
<path d="M684.516 651.441V653.702C684.516 666.628 695.31 677.402 708.239 677.402C721.179 677.402 731.964 666.628 731.964 653.702V651.441C731.964 638.526 721.179 627.74 708.239 627.74C695.31 627.74 684.516 638.526 684.516 651.441Z" fill="#4B5256"/>
<path d="M599.767 837.684C630.378 837.684 630.378 790.274 599.767 790.274C569.158 790.274 569.158 837.684 599.767 837.684Z" fill="#4B5256"/>
<path d="M547.792 578.076H550.056C562.993 578.076 573.779 567.293 573.779 554.378C573.779 541.452 562.993 530.678 550.056 530.678H547.792C534.852 530.678 524.066 541.452 524.066 554.378C524.066 567.293 534.852 578.076 547.792 578.076Z" fill="#4B5256"/>
<path d="M1035.56 289.135C1101.23 289.135 1101.82 187.521 1036.29 187.521C970.619 187.521 970.043 289.135 1035.56 289.135Z" fill="#FFCF26"/>
<path d="M965.5 359.113H967.764C995.464 359.113 1018.8 336.483 1018.99 308.676C1019.18 281.148 996.201 257.511 968.492 257.511H966.24C938.531 257.511 915.189 280.138 914.997 307.948C914.825 335.476 937.794 359.113 965.5 359.113Z" fill="#4B5256"/>
<path d="M814.089 512.622C879.757 512.622 880.341 411.008 814.829 411.008C749.153 411.008 748.565 512.622 814.089 512.622Z" fill="#4B5256"/>
<path d="M644.597 684.188C710.264 684.188 710.849 582.574 645.336 582.574C579.661 582.574 579.073 684.188 644.597 684.188Z" fill="#4B5256"/>
<path d="M436.685 605.174C502.352 605.174 502.936 503.568 437.424 503.568C371.748 503.568 371.172 605.174 436.685 605.174Z" fill="#4B5256"/>
<path d="M588.106 284.616H590.358C618.067 284.616 641.409 261.986 641.589 234.178C641.773 206.651 618.806 183.002 591.106 183.002H588.834C561.136 183.002 537.795 205.64 537.603 233.451C537.431 260.976 560.397 284.616 588.106 284.616Z" fill="#4B5256"/>
<path d="M972.378 486.377C1021.63 486.377 1022.06 410.169 972.922 410.169C923.674 410.169 923.239 486.377 972.378 486.377Z" fill="#4B5256"/>
<path d="M886.493 565.387H888.757C909.531 565.387 927.039 548.413 927.18 527.561C927.311 506.92 910.076 489.179 889.304 489.179H887.041C866.278 489.179 848.767 506.153 848.618 527.005C848.486 547.655 865.722 565.387 886.493 565.387Z" fill="#4B5256"/>
<path d="M701.188 389.856V387.592C701.188 366.843 684.196 349.354 663.321 349.211C642.65 349.082 624.898 366.296 624.898 387.048V389.31C624.898 410.05 641.89 427.539 662.765 427.682C683.436 427.814 701.188 410.606 701.188 389.856Z" fill="#4B5256"/>
<path d="M759.849 399.747C825.516 399.747 826.1 298.145 760.588 298.145C694.912 298.145 694.336 399.747 759.849 399.747Z" fill="#4B5256"/>
<path d="M903.159 369.445C903.159 368.386 903.151 367.324 903.242 366.273C902.939 368.446 902.643 370.615 902.331 372.797C902.363 372.533 902.431 372.261 902.535 372.009C901.695 374.01 900.867 376.02 900.027 378.009C900.088 377.926 900.139 377.857 900.188 377.774C897.145 380.846 894.093 383.914 891.05 386.985C891.13 386.934 891.202 386.874 891.273 386.822C889.17 387.701 887.078 388.571 884.984 389.45C885.176 389.358 885.399 389.307 885.623 389.307C883.368 389.59 881.113 389.873 878.849 390.177C879.173 390.145 879.485 390.145 879.809 390.145C893.657 390.085 905.323 378.885 905.426 364.931C905.515 351.217 894.033 339.273 880.173 339.344C869.831 339.393 862.089 343.887 856.166 352.371C852.839 357.125 852.295 363.497 852.295 369.081C852.283 382.915 863.636 394.579 877.545 394.659C891.342 394.759 903.139 383.279 903.159 369.445Z" fill="#4B5256"/>
<path d="M906.929 193.752H909.195C923.044 193.752 934.709 182.434 934.801 168.538C934.89 154.764 923.408 142.939 909.559 142.939H907.293C893.444 142.939 881.77 154.26 881.69 168.166C881.587 181.928 893.072 193.752 906.929 193.752Z" fill="#4B5256"/>
<path d="M875.292 290.821C908.136 290.821 908.417 240.017 875.656 240.017C842.813 240.017 842.529 290.821 875.292 290.821Z" fill="#4B5256"/>
<path d="M735.174 473.674H737.438C751.286 473.674 762.951 462.353 763.043 448.459C763.143 434.685 751.65 422.861 737.801 422.861H735.538C721.689 422.861 710.012 434.182 709.932 448.087C709.84 461.849 721.325 473.674 735.174 473.674Z" fill="#4B5256"/>
<path d="M794.008 612.503C813.711 612.503 813.883 582.019 794.232 582.019C774.52 582.019 774.348 612.503 794.008 612.503Z" fill="#4B5256"/>
<path d="M511.643 153.324C510.884 154.082 510.136 154.829 509.376 155.588C490.808 174.136 480.143 200.118 479.971 226.311C479.779 253.504 490.788 280.164 510.147 299.267C528.899 317.758 554.593 328.472 580.958 328.644C608.311 328.836 634.685 317.778 653.992 298.5C654.748 297.745 655.496 296.998 656.247 296.239C674.827 277.688 685.489 251.709 685.672 225.513C685.844 198.32 674.847 171.663 655.476 152.557C636.736 134.057 611.051 123.355 584.666 123.183C557.312 122.991 530.939 134.049 511.643 153.324Z" fill="#4B5256"/>
<path d="M904.666 478.192C905.09 478.183 905.534 478.191 905.97 478.223C903.798 477.919 901.623 477.616 899.451 477.324C899.583 477.344 899.712 477.373 899.844 477.404C897.844 476.566 895.841 475.727 893.841 474.9C893.932 474.951 894.032 475.011 894.113 475.06C891.041 472.023 887.978 468.983 884.895 465.932C884.955 466.015 885.003 466.104 885.055 466.195C884.175 464.106 883.316 462.005 882.436 459.915C882.456 460.047 882.488 460.179 882.519 460.307C882.224 458.058 881.943 455.805 881.639 453.552C881.68 453.987 881.688 454.422 881.68 454.866C881.76 468.7 892.941 480.353 906.93 480.444C920.647 480.544 932.627 469.063 932.535 455.23C932.444 439.458 920.942 427.482 905.03 427.379C891.181 427.31 879.505 438.771 879.424 452.605C879.324 466.439 890.806 478.1 904.666 478.192Z" fill="#4B5256"/>
<path d="M479.424 502.268V502.895C479.424 516.737 490.757 528.401 504.665 528.481C518.454 528.573 530.291 517.101 530.291 503.267V500.379C530.291 486.545 518.958 474.892 505.029 474.792C491.261 474.7 479.424 486.173 479.424 500.007V502.895C479.424 516.737 490.757 528.401 504.665 528.481C518.454 528.573 530.291 517.101 530.291 503.267V502.631C530.291 488.798 518.958 477.133 505.029 477.053C491.261 476.953 479.424 488.434 479.424 502.268Z" fill="#4B5256"/>
<path d="M680.941 331.455C713.785 331.455 714.069 280.653 681.305 280.653C648.473 280.653 648.181 331.455 680.941 331.455Z" fill="#4B5256"/>
<path d="M965.773 235.23C982.189 235.23 982.332 209.823 965.957 209.823C949.538 209.823 949.397 235.23 965.773 235.23Z" fill="#4B5256"/>
<path d="M891.197 144.927C907.613 144.927 907.754 119.523 891.378 119.523C874.962 119.523 874.821 144.927 891.197 144.927Z" fill="#4B5256"/>
<path d="M452.782 490.321H455.045C461.971 490.321 467.802 484.656 467.854 477.718C467.903 470.831 462.152 464.914 455.226 464.914H452.962C446.048 464.914 440.197 470.57 440.157 477.517C440.105 484.413 445.856 490.321 452.782 490.321Z" fill="#4B5256"/>
<path d="M482.166 167.505H484.422C491.356 167.505 497.187 161.849 497.239 154.893C497.279 148.006 491.528 142.099 484.602 142.099H482.347C475.433 142.099 469.581 147.752 469.541 154.71C469.49 161.597 475.241 167.505 482.166 167.505Z" fill="#4B5256"/>
<path d="M873.303 313.669H872.675C865.752 313.669 859.91 319.322 859.869 326.281C859.818 333.167 865.569 339.075 872.495 339.075H875.374C882.3 339.075 888.143 333.408 888.183 326.461C888.223 319.574 882.492 313.669 875.566 313.669H872.675C865.752 313.669 859.91 319.322 859.869 326.281C859.818 333.167 865.569 339.075 872.495 339.075H873.122C880.036 339.075 885.879 333.408 885.919 326.461C885.979 319.574 880.228 313.669 873.303 313.669Z" fill="#4B5256"/>
<path d="M868.604 232.966C885.02 232.966 885.16 207.56 868.784 207.56C852.368 207.56 852.228 232.966 868.604 232.966Z" fill="#4B5256"/>
<path d="M692.328 587.388C708.744 587.388 708.885 561.984 692.509 561.984C676.093 561.984 675.952 587.388 692.328 587.388Z" fill="#4B5256"/>
<path d="M592.888 716.068C609.304 716.068 609.448 690.661 593.08 690.661C576.655 690.661 576.512 716.068 592.888 716.068Z" fill="#4B5256"/>
<path d="M579.331 862.804H583.85C590.784 862.804 596.618 857.148 596.658 850.189C596.71 843.314 590.967 837.397 584.033 837.397H579.514C572.6 837.397 566.757 843.051 566.717 850.009C566.657 856.896 572.408 862.804 579.331 862.804Z" fill="#4B5256"/>
<path d="M539.594 351.107V353.369C539.594 360.287 545.256 366.112 552.21 366.164C559.105 366.212 565.027 360.467 565.027 353.552V351.288C565.027 344.381 559.368 338.536 552.402 338.504C545.508 338.444 539.594 344.189 539.594 351.107Z" fill="#4B5256"/>
<path d="M797.793 527.373V525.12C797.793 518.193 792.131 512.377 785.168 512.317C778.274 512.277 772.359 518.013 772.359 524.94V527.181C772.359 534.097 778.021 539.945 784.976 539.973C791.879 540.036 797.793 534.289 797.793 527.373Z" fill="#4B5256"/>
<path d="M807.587 409.05H812.103C819.029 409.05 824.863 403.394 824.903 396.447C824.963 389.56 819.212 383.643 812.287 383.643H807.768C800.853 383.643 794.999 389.297 794.959 396.255C794.911 403.142 800.662 409.05 807.587 409.05Z" fill="#4B5256"/>
<path d="M995.152 542.24C1011.57 542.24 1011.71 516.836 995.333 516.836C978.917 516.836 978.776 542.24 995.152 542.24Z" fill="#4B5256"/>
<path d="M938.655 517.41C955.071 517.41 955.214 492.003 938.838 492.003C922.422 492.003 922.279 517.41 938.655 517.41Z" fill="#4B5256"/>
<path d="M597.414 115.583C613.83 115.583 613.973 90.1768 597.606 90.1768C581.181 90.1768 581.038 115.583 597.414 115.583Z" fill="#4B5256"/>
<path d="M707.392 260.903C707.424 259.913 707.401 259.913 707.301 260.892C706.392 262.063 705.481 263.256 704.582 264.427C704.633 264.395 704.673 264.355 704.745 264.327C703.218 264.527 701.69 264.719 700.166 264.922C700.255 264.951 700.346 265.002 700.438 265.031C699.567 264.527 698.69 264.012 697.819 263.508C698.435 263.992 698.971 264.538 699.538 265.094C704.957 270.484 713.347 262.094 707.917 256.713C705.805 254.612 703.369 252.611 700.166 253.49C696.699 254.449 695.544 257.652 695.535 260.903C695.484 268.546 707.352 268.546 707.392 260.903Z" fill="#4B5256"/>
<path d="M990.728 196H992.983C999.454 196 1004.85 190.608 1004.85 184.147C1004.85 177.693 999.454 172.3 992.983 172.3H990.728C984.27 172.3 978.871 177.693 978.871 184.147C978.871 190.608 984.27 196 990.728 196Z" fill="#4B5256"/>
<path d="M832.534 369.826C847.83 369.826 847.83 346.126 832.534 346.126C817.241 346.126 817.241 369.826 832.534 369.826Z" fill="#4B5256"/>
<path d="M635.927 566.221H638.191C644.65 566.221 650.048 560.828 650.048 554.365C650.048 547.913 644.65 542.521 638.191 542.521H635.927C629.457 542.521 624.059 547.913 624.059 554.365C624.059 560.828 629.457 566.221 635.927 566.221Z" fill="#4B5256"/>
<path d="M729.715 265.411V267.675C729.715 280.599 740.509 291.373 753.438 291.373C766.378 291.373 777.164 280.599 777.164 267.675V265.411C777.164 252.488 766.378 241.714 753.438 241.714C740.509 241.714 729.715 252.488 729.715 265.411Z" fill="#4B5256"/>
<path d="M693.555 150.287V152.549C693.555 165.472 704.352 176.246 717.28 176.246C730.221 176.246 741.006 165.472 741.006 152.549V150.287C741.006 137.361 730.221 126.587 717.28 126.587C704.352 126.587 693.555 137.361 693.555 150.287Z" fill="#4B5256"/>
<path d="M527.451 94.9777C558.059 94.9777 558.059 47.5684 527.451 47.5684C496.842 47.5684 496.842 94.9777 527.451 94.9777Z" fill="#4B5256"/>
<path d="M472.084 430.213V432.474C472.084 445.377 482.878 456.171 495.807 456.171C508.747 456.171 519.533 445.377 519.533 432.474V430.213C519.533 417.286 508.747 406.512 495.807 406.512C482.878 406.512 472.084 417.286 472.084 430.213Z" fill="#4B5256"/>
<path d="M449.484 646.93V649.183C449.484 662.106 460.281 672.891 473.21 672.891C486.148 672.891 496.945 662.106 496.945 649.183V646.93C496.945 634.004 486.148 623.229 473.21 623.229C460.281 623.229 449.484 634.004 449.484 646.93Z" fill="#4B5256"/>
<path d="M563.607 690.951C594.215 690.951 594.215 643.553 563.607 643.553C532.998 643.553 532.998 690.951 563.607 690.951Z" fill="#4B5256"/>
<path d="M843.837 711.268C874.446 711.268 874.446 663.858 843.837 663.858C813.229 663.858 813.229 711.268 843.837 711.268Z" fill="#4B5256"/>
<path d="M615.583 508.096C646.192 508.096 646.192 460.698 615.583 460.698C584.975 460.698 584.975 508.096 615.583 508.096Z" fill="#4B5256"/>
<path d="M246.094 488.906V492.301C246.094 531.054 278.482 563.408 317.288 563.408C356.084 563.408 388.472 531.054 388.472 492.301V488.906C388.472 450.141 356.084 417.788 317.288 417.788C278.482 417.788 246.094 450.141 246.094 488.906Z" fill="#4B5256"/>
<path d="M368.132 671.761C429.349 671.761 429.349 576.953 368.132 576.953C306.914 576.953 306.914 671.761 368.132 671.761Z" fill="#FFCF26"/>
<path d="M405.416 353.455V356.85C405.416 382.68 427.01 404.248 452.868 404.248C478.754 404.248 500.328 382.68 500.328 356.85V353.455C500.328 327.617 478.754 306.058 452.868 306.058C427.01 306.058 405.416 327.617 405.416 353.455Z" fill="#4B5256"/>
<path d="M395.419 431.508C394.287 432.639 393.164 433.769 392.021 434.9C382.894 444.031 382.894 459.287 392.021 468.416C401.17 477.555 416.443 477.555 425.583 468.416C426.715 467.285 427.847 466.163 428.979 465.032C438.117 455.904 438.117 440.648 428.979 431.508C419.841 422.38 404.565 422.38 395.419 431.508Z" fill="#4B5256"/>
<path d="M351.179 400.867C381.788 400.867 381.788 353.458 351.179 353.458C320.571 353.458 320.571 400.867 351.179 400.867Z" fill="#4B5256"/>
<path d="M269.82 624.355C300.431 624.355 300.431 576.946 269.82 576.946C239.211 576.946 239.211 624.355 269.82 624.355Z" fill="#4B5256"/>
<path d="M395.245 712.392H391.849C378.932 712.392 368.135 723.175 368.135 736.09C368.135 749.016 378.932 759.79 391.849 759.79H395.245C408.185 759.79 418.97 749.016 418.97 736.09C418.97 723.175 408.185 712.392 395.245 712.392Z" fill="#4B5256"/>
<path d="M279.991 725.938H283.389C296.326 725.938 307.103 715.155 307.103 702.24C307.103 689.314 296.326 678.531 283.389 678.531H279.991C267.053 678.531 256.268 689.314 256.268 702.24C256.268 715.155 267.053 725.938 279.991 725.938Z" fill="#4B5256"/>
<path d="M557.953 471.975C588.561 471.975 588.561 424.566 557.953 424.566C527.344 424.566 527.344 471.975 557.953 471.975Z" fill="#4B5256"/>
<path d="M357.96 278.959C350.661 278.979 343.627 280.94 338.34 286.221C332.93 291.622 330.858 298.561 330.85 306.043C330.807 318.978 341.675 329.752 354.573 329.752C367.533 329.752 378.258 318.966 378.298 306.043C378.298 305.356 378.298 304.66 378.37 303.973C378.086 306.063 377.803 308.164 377.519 310.262C377.551 310.133 377.591 309.981 377.611 309.838C376.823 311.716 376.015 313.605 375.227 315.494C375.267 315.383 375.327 315.291 375.376 315.179C374.135 316.777 372.911 318.371 371.668 319.977C371.748 319.897 371.82 319.825 371.9 319.745C370.301 320.976 368.696 322.218 367.089 323.44C367.209 323.4 367.31 323.349 367.421 323.289C365.53 324.087 363.642 324.886 361.751 325.681C361.891 325.653 362.034 325.621 362.175 325.593C360.083 325.873 357.971 326.157 355.868 326.429C356.576 326.38 357.252 326.38 357.96 326.369C370.9 326.328 381.685 315.615 381.685 302.66C381.685 289.776 370.9 278.93 357.96 278.959Z" fill="#4B5256"/>
<path d="M208.804 434.726C239.413 434.726 239.413 387.328 208.804 387.328C178.196 387.328 178.196 434.726 208.804 434.726Z" fill="#4B5256"/>
<path d="M479.992 712.393V715.785C479.992 728.709 490.789 739.485 503.718 739.485C516.655 739.485 527.444 728.709 527.444 715.785V712.393C527.444 699.467 516.655 688.693 503.718 688.693C490.789 688.693 479.992 699.467 479.992 712.393Z" fill="#4B5256"/>
<path d="M306.264 763.188V766.571C306.264 776.266 314.361 784.355 324.055 784.355C333.76 784.355 341.858 776.266 341.858 766.571V763.188C341.858 753.496 333.76 745.415 324.055 745.415C314.361 745.415 306.264 753.496 306.264 763.188Z" fill="#4B5256"/>
<path d="M468.979 780.117V783.509C468.979 793.193 477.065 801.282 486.767 801.282C496.472 801.282 504.57 793.193 504.57 783.509V780.117C504.57 770.422 496.472 762.345 486.767 762.345C477.065 762.345 468.979 770.422 468.979 780.117Z" fill="#4B5256"/>
<path d="M222.365 692.926C245.32 692.926 245.32 657.372 222.365 657.372C199.407 657.372 199.407 692.926 222.365 692.926Z" fill="#4B5256"/>
<path d="M249.483 778.424C264.779 778.424 264.779 754.727 249.483 754.727C234.19 754.727 234.19 778.424 249.483 778.424Z" fill="#4B5256"/>
<path d="M391.86 819.06C407.153 819.06 407.153 795.36 391.86 795.36C376.565 795.36 376.565 819.06 391.86 819.06Z" fill="#4B5256"/>
<path d="M222.368 558.323C237.661 558.323 237.661 534.623 222.368 534.623C207.073 534.623 207.073 558.323 222.368 558.323Z" fill="#4B5256"/>
<path d="M276.605 389.011C291.897 389.011 291.897 365.31 276.605 365.31C261.309 365.31 261.309 389.011 276.605 389.011Z" fill="#4B5256"/>
<path d="M585.214 144.64C606.421 144.64 612.183 172.794 612.839 189.94H606.389C605.905 175.854 602.317 149.477 585.214 149.477C568.098 149.477 564.519 175.854 564.035 189.94H557.585C558.233 172.794 564.004 144.64 585.214 144.64ZM585.214 278.971H555.837C555.23 262.349 544.444 260.886 534.69 259.572C531.535 259.14 528.524 258.736 526.372 257.666C526.28 242.63 528.472 224.594 533.043 209.255C535.398 201.469 540.693 195.381 551.31 195.301H558.021V203.046C556.989 203.138 556.17 203.994 556.17 205.056C556.17 206.106 556.989 206.973 558.021 207.065V234.936C558.021 236.419 559.233 237.621 560.72 237.621C562.196 237.621 563.408 236.419 563.408 234.936V207.065C564.439 206.973 565.259 206.106 565.259 205.056C565.259 203.994 564.439 203.138 563.408 203.046V195.301H585.214H607.017V203.046C605.985 203.138 605.157 203.994 605.157 205.056C605.157 206.106 605.985 206.973 607.017 207.065V234.936C607.017 236.419 608.22 237.621 609.707 237.621C611.192 237.621 612.395 236.419 612.395 234.936V207.065C613.435 206.973 614.246 206.106 614.246 205.056C614.246 203.994 613.435 203.138 612.395 203.046V195.301H619.117C629.722 195.381 635.018 201.469 637.373 209.255C641.944 224.594 644.127 242.63 644.055 257.666C641.892 258.736 638.88 259.14 635.737 259.572C625.98 260.886 615.195 262.349 614.587 278.971H585.214ZM550.459 278.971C549.843 267.035 541.504 265.904 533.982 264.885C531.355 264.53 528.796 264.189 526.532 263.542C526.724 267.51 527.1 271.176 527.656 274.417C528.128 276.993 529.667 278.942 532.759 278.971H550.459ZM643.895 263.542C641.608 264.189 639.061 264.53 636.445 264.885C628.912 265.904 620.582 267.035 619.957 278.971H637.665C640.749 278.942 642.296 276.993 642.76 274.417C643.316 271.176 643.691 267.51 643.895 263.542Z" fill="#FFCF26"/>
<path d="M624.163 614.733C625.651 610.967 628.33 607.775 631.737 605.583C631.897 606.685 632.393 607.715 633.121 608.542C631.141 609.896 629.462 611.662 628.249 613.723C626.822 614.006 625.459 614.35 624.163 614.733ZM676.598 648.358C676.051 653.184 672.615 657.194 667.752 657.194H617.745C612.874 657.194 609.446 653.184 608.899 648.358C608.495 644.843 608.395 641.663 608.567 638.795H676.942C677.102 641.663 676.993 644.843 676.598 648.358ZM608.819 636.098C609.011 634.756 609.263 633.505 609.578 632.314H675.942C676.254 633.505 676.498 634.756 676.678 636.098H608.819ZM610.478 629.618C614.742 618.993 625.782 615.197 642.743 615.197C659.758 615.197 670.807 618.924 675.051 629.618H610.478ZM636.192 602.302C632.828 603.373 634.516 608.502 637.82 607.452C639.419 606.948 641.067 606.705 642.734 606.705C644.411 606.705 646.061 606.948 647.637 607.452C651.033 608.534 652.66 603.373 649.273 602.302C647.153 601.635 644.946 601.303 642.734 601.303C640.519 601.303 638.307 601.635 636.192 602.302ZM653.792 605.614C657.17 607.787 659.838 610.955 661.322 614.702C660.03 614.319 658.666 613.986 657.23 613.703C656.036 611.662 654.379 609.916 652.408 608.574C653.156 607.735 653.632 606.705 653.792 605.614Z" fill="#FFCF26"/>
<path fill-rule="evenodd" clip-rule="evenodd" d="M435.833 518.067C439.288 518.067 442.18 521.754 442.988 526.74C441.896 526.377 440.756 526.105 439.521 525.925C439.025 522.653 437.561 520.289 435.833 520.289C434.102 520.289 432.646 522.653 432.142 525.925C430.919 526.105 429.767 526.377 428.675 526.74C429.463 521.754 432.374 518.067 435.833 518.067ZM435.833 585.631H418.778C416.01 585.642 414.13 583.865 414.027 580.885C413.694 562.093 412.803 528.358 435.833 528.358C458.859 528.358 457.98 562.093 457.636 580.885C457.536 583.865 455.656 585.642 452.885 585.631H435.833ZM423.248 560.336C421.984 560.336 420.953 561.366 420.953 562.617V565.205H450.713V562.617C450.713 561.366 449.681 560.336 448.426 560.336H423.248ZM450.713 567.91H420.953V577.625C420.953 578.887 421.984 579.906 423.248 579.906H448.426C449.681 579.906 450.713 578.887 450.713 577.625V567.91ZM431.818 536.467C431.122 536.467 430.535 537.042 430.535 537.749V541.473C430.535 542.171 431.122 542.755 431.818 542.755H439.836C440.544 542.755 441.128 542.171 441.128 541.473V537.749C441.128 537.042 440.544 536.467 439.836 536.467H431.818ZM460.235 582.067C474.235 575.109 470.817 549.997 455.341 538.648C456.321 540.757 457.112 543.039 457.756 545.443C465.55 554.428 467.857 569.868 460.415 576.199C460.387 577.533 460.367 578.916 460.335 580.238C460.324 580.876 460.324 581.432 460.235 582.067ZM411.431 582.067C411.348 581.452 411.339 580.865 411.328 580.238C411.299 578.916 411.267 577.533 411.259 576.199C403.809 569.868 406.124 554.428 413.906 545.443C414.554 543.039 415.342 540.757 416.322 538.648C400.866 549.997 397.43 575.109 411.431 582.067Z" fill="white"/>
<path fill-rule="evenodd" clip-rule="evenodd" d="M299.013 524.215C299.125 524.487 299.176 524.799 299.176 525.114C299.176 526.476 298.085 527.587 296.718 527.587C295.345 527.587 294.242 526.476 294.242 525.114C294.242 524.679 294.354 524.255 294.566 523.911C295.233 524.103 295.95 524.215 296.689 524.215H299.013ZM313.63 489.366C314.44 489.366 315.097 490.024 315.097 490.831C315.097 491.63 314.44 492.285 313.63 492.285C312.833 492.285 312.174 491.63 312.174 490.831C312.174 490.024 312.833 489.366 313.63 489.366ZM296.689 464.203C293.99 464.203 291.795 466.404 291.795 469.1V516.621C291.795 519.306 293.99 521.519 296.689 521.519H310.346V496.931C310.781 497.091 311.254 497.163 311.741 497.163H315.532C316.016 497.163 316.481 497.091 316.916 496.931V521.519H330.573C333.281 521.519 335.476 519.306 335.476 516.621V469.1C335.476 466.404 333.281 464.203 330.573 464.203H316.916V492.861C316.916 493.628 316.289 494.243 315.532 494.243H311.741C310.973 494.243 310.346 493.628 310.346 492.861V464.203H296.689ZM338.183 478.907C338.759 481.995 342.774 486.449 342.774 492.861C342.774 499.212 338.759 503.523 338.183 506.755V500.606C339.487 498.405 340.731 495.929 340.731 492.861C340.731 489.789 339.487 487.316 338.183 485.107V478.907ZM332.705 523.911C332.908 524.255 333.029 524.679 333.029 525.114C333.029 526.476 331.917 527.587 330.553 527.587C329.189 527.587 328.086 526.476 328.086 525.114C328.086 524.799 328.146 524.487 328.258 524.215H330.573C331.321 524.215 332.029 524.103 332.705 523.911ZM300.045 461.506C303.116 460.699 307.475 456.992 313.63 456.992C319.736 456.992 323.951 460.699 327.157 461.506H321.243C319.068 460.235 316.653 459.033 313.63 459.033C310.618 459.033 308.191 460.235 306.028 461.506H300.045Z" fill="white"/>
<path fill-rule="evenodd" clip-rule="evenodd" d="M969.343 332.277H959.105V314.608H979.573V332.277H969.343ZM955.222 301.461C955.222 303.235 958.873 303.235 958.873 301.461C958.873 295.27 961.268 282.526 969.343 282.526C977.421 282.526 979.808 295.27 979.808 301.461C979.808 303.235 983.455 303.235 983.455 301.461C983.455 293.532 979.209 279.821 969.343 279.821C959.477 279.821 955.222 293.532 955.222 301.461ZM959.105 311.891V305.084C960.529 304.489 961.572 303.298 961.572 301.461C961.572 299.955 961.732 298.046 962.085 296.037H969.343H976.601C976.945 298.046 977.108 299.955 977.108 301.461C977.108 303.298 978.16 304.489 979.573 305.084V311.891H959.105ZM954.959 305.064V332.277H940.442C938.078 332.277 936.035 330.351 936.147 327.986L937.23 305.863C937.491 300.459 941.646 296.037 947.064 296.037H953.039C952.686 297.986 952.523 299.835 952.523 301.461C952.523 303.278 953.554 304.469 954.959 305.064ZM985.65 296.037H991.625C997.032 296.037 1001.2 300.47 1001.46 305.863L1002.54 327.986C1002.65 330.351 1000.6 332.277 998.244 332.277H983.728V305.064C985.134 304.469 986.155 303.278 986.155 301.461C986.155 299.835 985.994 297.986 985.65 296.037Z" fill="#FFCF26"/>
<path fill-rule="evenodd" clip-rule="evenodd" d="M814.462 429.604C812.743 429.604 811.044 429.828 809.327 429.991V435.037H806.628V430.163C806.485 430.183 806.344 430.183 806.184 430.183C805.233 430.163 804.849 429.627 804.849 428.837V427.151C804.869 426.293 805.384 425.901 806.184 425.809C807.556 425.669 808.72 425.457 810.004 425.285C813.027 424.859 815.886 424.859 818.909 425.285C820.173 425.457 821.356 425.669 822.732 425.809C823.528 425.901 824.044 426.293 824.064 427.151V428.837C824.064 429.627 823.68 430.163 822.732 430.183C822.58 430.183 822.428 430.183 822.285 430.163V435.037H819.586V429.991C817.878 429.828 816.158 429.604 814.462 429.604ZM800.805 492.525L800.35 495.413C800.258 495.948 799.894 496.412 799.338 496.412H795.779C795.224 496.412 794.851 495.948 794.771 495.413L794.255 492.01C792.284 491.102 790.908 489.122 790.908 486.82V443.45C790.908 440.31 793.487 437.754 796.61 437.754H832.282C835.426 437.754 838.005 440.31 838.005 443.45V486.82C838.005 489.122 836.629 491.102 834.658 492.01L834.142 495.413C834.053 495.948 833.678 496.412 833.133 496.412H829.574C829.007 496.412 828.655 495.948 828.563 495.413L828.107 492.525H800.805ZM814.462 489.757H827.119C829.047 489.757 830.807 488.961 832.082 487.688C833.354 486.417 834.133 484.668 834.133 482.75V453.276C834.133 450.68 833.082 448.339 831.374 446.641C829.675 444.944 827.331 443.885 824.732 443.885H814.462H804.172C801.582 443.885 799.238 444.944 797.539 446.641C795.831 448.339 794.771 450.68 794.771 453.276V482.75C794.771 484.668 795.567 486.417 796.831 487.688H796.843C798.106 488.961 799.866 489.757 801.785 489.757H814.462ZM801.785 487.052H814.462H827.119C828.311 487.052 829.382 486.568 830.17 485.79C830.95 485.011 831.434 483.941 831.434 482.75V464.978H797.47V482.75C797.47 483.941 797.963 485.011 798.734 485.79H798.742C799.522 486.568 800.602 487.052 801.785 487.052ZM831.434 462.281V453.276C831.434 451.427 830.686 449.761 829.463 448.559C828.251 447.337 826.583 446.59 824.732 446.59H814.462H804.172C802.33 446.59 800.654 447.337 799.45 448.559C798.227 449.761 797.47 451.427 797.47 453.276V462.281H802.29V458.202C802.29 456.425 803.018 454.81 804.201 453.648C805.373 452.478 806.992 451.751 808.76 451.751H814.462H820.153C821.921 451.751 823.548 452.478 824.712 453.648C825.895 454.81 826.612 456.425 826.612 458.202V462.281H831.434ZM805 462.281H823.912V458.202C823.912 457.172 823.488 456.244 822.801 455.546C822.124 454.871 821.173 454.447 820.153 454.447H814.462H808.76C807.728 454.447 806.78 454.871 806.112 455.546C805.413 456.244 805 457.172 805 458.202V462.281Z" fill="white"/>
</g>
<defs>
<clipPath id="clip0_791_3005">
<rect width="1126" height="889" fill="white"/>
</clipPath>
</defs>
</svg>
